<svg width="100" height="100" viewBox="0 0 100 100" fill="none" xmlns="http://www.w3.org/2000/svg">
<g clip-path="url(#clip0)">
<path d="M84.3751 21.875H45.3126V37.2201L40.2344 43.75L45.3126 46.875V53.9063C45.3126 55.3567 45.8887 56.7477 46.9143 57.7732C47.9399 58.7988 49.3309 59.375 50.7813 59.375H62.5001V67.1875C62.5001 67.1875 60.4298 69.5162 57.9755 73.4359C70.4344 73.3688 84.3751 65.625 84.3751 65.625V21.875Z" fill="#FFDFC5"/>
<path d="M84.3751 36.8693C80.2766 47.2717 72.4889 55.7992 62.5001 60.8223V67.1875C62.5001 67.1875 60.4298 69.5162 57.9755 73.4359C70.4345 73.3688 84.3751 65.625 84.3751 65.625V36.8693Z" fill="#FFD5C7"/>
<path d="M37.5391 5.97012C37.5391 5.97012 35.9766 27.8451 52.6368 28.125H67.1875C69.8784 27.8451 71.875 29.4076 71.875 32.1203C71.875 40.3451 71.8946 52.8451 84.3751 57.5326C104.04 32.4688 100.716 7.78164 88.8456 7.34883C82.8126 -6.52988 55.6655 8.91738 43.5493 8.91738C39.0055 8.91738 37.5391 5.97012 37.5391 5.97012Z" fill="#68676B"/>
<path d="M93.4477 9.01562C92.6544 15.6359 90.3316 21.9808 86.6632 27.5485C82.9947 33.1162 78.0811 37.754 72.311 41.0951C73.209 47.6562 75.958 54.3711 84.375 57.5326C101.172 36.1246 101.195 14.9947 93.4477 9.01562Z" fill="#58575B"/>
<path d="M71.8751 35.6576C71.8751 29.4076 79.6876 29.4076 79.6876 37.2201C79.6876 41.535 77.7522 45.0326 73.4376 45.0326H67.1876V35.6576H71.8751Z" fill="#FFDFC5"/>
<path d="M26.5626 57.8125V14.0625C26.5626 13.2337 26.2333 12.4388 25.6473 11.8528C25.0612 11.2667 24.2664 10.9375 23.4376 10.9375H10.9376C10.1088 10.9375 9.3139 11.2667 8.72785 11.8528C8.14179 12.4388 7.81255 13.2337 7.81255 14.0625V57.8125C5.84652 59.2846 4.25584 61.2002 3.16995 63.4032C2.08407 65.6062 1.53366 68.0345 1.56353 70.4904C1.6567 78.857 8.44615 85.7363 16.811 85.933C20.1216 86.0128 23.372 85.0387 26.0931 83.1513C28.8141 81.2639 30.8652 78.5607 31.9502 75.4319C33.0352 72.3031 33.098 68.9104 32.1297 65.7436C31.1613 62.5767 29.2118 59.7994 26.5626 57.8125Z" fill="#E2DBD5"/>
<path d="M1.56353 70.4904C1.6567 78.857 8.44615 85.7363 16.811 85.933C20.1216 86.0128 23.372 85.0387 26.0931 83.1513C28.8141 81.2639 30.8652 78.5607 31.9502 75.4319C33.0352 72.3031 33.098 68.9104 32.1297 65.7436C31.1613 62.5767 29.2118 59.7994 26.5626 57.8125V43.4478C21.3995 48.3676 14.8583 51.595 7.81255 52.699V57.8125C5.84652 59.2846 4.25584 61.2002 3.16995 63.4032C2.08407 65.6062 1.53366 68.0345 1.56353 70.4904Z" fill="#D4CCC7"/>
<path d="M57.9755 73.4359C54.3971 79.1494 50.0001 88.2437 50.0001 98.4375V100H95.3126V98.4375C95.3126 87.5 93.7501 78.125 84.3751 65.625C84.3751 65.625 70.4344 73.3688 57.9755 73.4359Z" fill="#96E0D7"/>
<path d="M64.0626 32.8125C64.0626 34.0557 63.5687 35.248 62.6896 36.1271C61.8105 37.0061 60.6183 37.5 59.3751 37.5C58.1319 37.5 56.9396 37.0061 56.0605 36.1271C55.1814 35.248 54.6876 34.0557 54.6876 32.8125C54.6876 30.2236 59.3751 21.875 59.3751 21.875C59.3751 21.875 64.0626 30.2236 64.0626 32.8125Z" fill="#AFEFDE"/>
<path d="M20.3125 61.475V35.9375H14.0625V61.475C11.9775 62.2122 10.2202 63.6627 9.10117 65.5702C7.98218 67.4778 7.57356 69.7195 7.94753 71.8991C8.32151 74.0788 9.45399 76.0561 11.1448 77.4816C12.8357 78.907 14.976 79.6888 17.1875 79.6888C19.399 79.6888 21.5394 78.907 23.2302 77.4816C24.921 76.0561 26.0535 74.0788 26.4275 71.8991C26.8015 69.7195 26.3929 67.4778 25.2739 65.5702C24.1549 63.6627 22.3976 62.2122 20.3125 61.475Z" fill="#F27C6D"/>
<path d="M90.1085 74.6219C86.1906 81.5741 80.3139 87.22 73.2103 90.8562C66.1068 94.4924 58.0903 95.9582 50.1596 95.0711C50.0575 96.1781 50.0001 97.3006 50.0001 98.4375V100H95.3126V98.4375C95.3126 90.2781 94.4421 82.9883 90.1085 74.6219Z" fill="#97D0DD"/>
<path d="M76.5626 76.5625C74.0762 76.5625 71.6916 77.5502 69.9334 79.3084C68.1753 81.0665 67.1876 83.4511 67.1876 85.9375V100H85.9376V85.9375C85.9376 83.4511 84.9498 81.0665 83.1917 79.3084C81.4335 77.5502 79.049 76.5625 76.5626 76.5625Z" fill="#AFEFDE"/>
<path d="M24.9401 65.0502C23.2243 67.8078 20.8946 70.1318 18.1327 71.8407C15.3709 73.5497 12.2515 74.5975 9.01801 74.9024C9.63659 76.0052 10.472 76.9714 11.4739 77.7428C12.4757 78.5142 13.6234 79.0749 14.8477 79.3911C16.0719 79.7073 17.3476 79.7724 18.5977 79.5826C19.8478 79.3927 21.0466 78.9519 22.1218 78.2865C23.1971 77.6211 24.1265 76.745 24.8542 75.7109C25.5819 74.6768 26.0928 73.5062 26.3561 72.2694C26.6194 71.0327 26.6297 69.7555 26.3863 68.5146C26.143 67.2738 25.651 66.0951 24.9401 65.0494V65.0502Z" fill="#ED6464"/>
<path d="M14.0626 71.875C15.7885 71.875 17.1876 70.4759 17.1876 68.75C17.1876 67.0241 15.7885 65.625 14.0626 65.625C12.3367 65.625 10.9376 67.0241 10.9376 68.75C10.9376 70.4759 12.3367 71.875 14.0626 71.875Z" fill="#FFA596"/>
<path d="M20.3126 65.625C21.1755 65.625 21.8751 64.9254 21.8751 64.0625C21.8751 63.1996 21.1755 62.5 20.3126 62.5C19.4496 62.5 18.7501 63.1996 18.7501 64.0625C18.7501 64.9254 19.4496 65.625 20.3126 65.625Z" fill="#FFA596"/>
<path d="M62.954 29.0777C60.979 31.7027 58.1008 33.5022 54.876 34.1281C55.1927 35.2108 55.8892 36.143 56.8376 36.7536C57.7861 37.3642 58.9229 37.6123 60.0396 37.4524C61.1562 37.2925 62.1778 36.7353 62.9167 35.883C63.6557 35.0307 64.0625 33.9405 64.0626 32.8125C64.0626 31.9945 63.5938 30.601 62.954 29.0777Z" fill="#96E0D7"/>
<path d="M74.2188 15.625C77.2391 15.625 79.6876 13.1766 79.6876 10.1562C79.6876 7.13594 77.2391 4.6875 74.2188 4.6875C71.1985 4.6875 68.7501 7.13594 68.7501 10.1562C68.7501 13.1766 71.1985 15.625 74.2188 15.625Z" fill="#8A8A8C"/>
<path d="M83.5938 18.75C84.8882 18.75 85.9376 17.7007 85.9376 16.4062C85.9376 15.1118 84.8882 14.0625 83.5938 14.0625C82.2994 14.0625 81.2501 15.1118 81.2501 16.4062C81.2501 17.7007 82.2994 18.75 83.5938 18.75Z" fill="#8A8A8C"/>
<path d="M78.0321 32.2883C77.7763 34.8114 76.9889 37.2517 75.7215 39.4484C74.4542 41.6451 72.7358 43.5483 70.6796 45.0326H73.4376C77.7522 45.0326 79.6876 41.535 79.6876 37.2201C79.6876 34.9023 78.9997 33.2717 78.0321 32.2883Z" fill="#FFD5C7"/>
<path d="M75.0001 87.5C76.726 87.5 78.1251 86.1009 78.1251 84.375C78.1251 82.6491 76.726 81.25 75.0001 81.25C73.2742 81.25 71.8751 82.6491 71.8751 84.375C71.8751 86.1009 73.2742 87.5 75.0001 87.5Z" fill="#D5F7ED"/>
<path d="M79.6876 90.625C80.5505 90.625 81.2501 89.9254 81.2501 89.0625C81.2501 88.1995 80.5505 87.5 79.6876 87.5C78.8246 87.5 78.1251 88.1995 78.1251 89.0625C78.1251 89.9254 78.8246 90.625 79.6876 90.625Z" fill="#D5F7ED"/>
<path d="M98.8122 32.3302C100.64 24.5613 100.366 17.5243 98.0405 12.5152C96.2543 8.6675 93.3754 6.33938 89.8657 5.87004C86.4231 -0.602813 78.7329 -0.626446 71.5292 0.692304C69.4979 1.0634 70.0575 4.14016 72.0918 3.76613C88.0446 0.846406 86.042 8.81184 88.7891 8.91184C92.2641 9.03801 94.1967 11.6566 95.2061 13.831C97.2084 18.1446 97.4143 24.6265 95.7704 31.6146C93.8971 39.5782 89.7889 47.8626 83.8647 55.6398C81.1727 54.4554 79.067 52.8097 77.4501 50.6318C76.2196 48.9732 73.7079 50.8335 74.9411 52.4947C76.9034 55.1378 79.5495 57.1822 82.8122 58.5857C82.9131 65.6804 82.5778 65.8341 83.1247 66.5632C99.0098 87.7429 90.6571 100.001 95.3125 100.001C95.727 100.001 96.1244 99.8361 96.4174 99.5431C96.7104 99.25 96.875 98.8526 96.875 98.4382C96.875 86.9929 95.0348 77.3962 85.9376 65.1075V58.0685C92.3469 49.7911 96.7958 40.9023 98.8122 32.3302Z" fill="black"/>
<path d="M73.4375 43.4701C71.3715 43.4701 71.3689 46.5951 73.4375 46.5951C83.7246 46.5951 83.3762 29.5867 75.4551 29.5867C72.8996 29.5867 70.3125 31.6721 70.3125 35.6576C70.3125 37.7232 73.4375 37.7266 73.4375 35.6576C73.4375 31.3803 78.125 31.6225 78.125 37.2201C78.125 39.0994 77.6682 43.4701 73.4375 43.4701Z" fill="black"/>
<path d="M76.5625 75C73.6627 75.0033 70.8826 76.1567 68.8321 78.2071C66.7816 80.2576 65.6283 83.0377 65.625 85.9375V98.4375C65.625 100.503 68.75 100.506 68.75 98.4375V85.9375C68.75 83.8655 69.5731 81.8784 71.0382 80.4132C72.5034 78.9481 74.4905 78.125 76.5625 78.125C78.6345 78.125 80.6217 78.9481 82.0868 80.4132C83.5519 81.8784 84.375 83.8655 84.375 85.9375V98.4375C84.375 100.503 87.5 100.506 87.5 98.4375V85.9375C87.4968 83.0377 86.3434 80.2576 84.2929 78.2071C82.2424 76.1567 79.4623 75.0033 76.5625 75Z" fill="black"/>
<path d="M77.5196 67.1471C73.1666 68.9791 67.0434 71.1088 61.0069 71.7092C65.6162 65.1088 63.5098 70.8955 64.0633 59.375C64.0633 58.9606 63.8987 58.5632 63.6057 58.2701C63.3126 57.9771 62.9152 57.8125 62.5008 57.8125H50.7813C49.7456 57.8113 48.7528 57.3994 48.0205 56.6671C47.2881 55.9348 46.8762 54.9419 46.875 53.9063V46.875C46.875 45.4344 45.4246 45.3293 42.5381 43.333C46.4479 38.1355 46.875 38.1572 46.875 37.2197V28.6396C47.7965 28.9912 49.4649 29.4436 50.002 29.4436C51.8955 29.4436 52.1446 26.6701 50.2692 26.3418C42.5063 24.9846 39.6004 17.3443 39.1274 9.47695C43.9278 11.9725 51.9477 9.20351 60.2074 6.80117C62.1901 6.21953 61.3135 3.22168 59.3285 3.80234C50.3106 6.62324 41.2297 9.30098 38.9338 5.26465C38.7891 4.95481 38.5448 4.70231 38.24 4.54738C37.9351 4.39246 37.5872 4.34401 37.2516 4.40976C36.9094 4.4772 36.5992 4.65614 36.3695 4.91859C36.1398 5.18105 36.0035 5.51223 35.9821 5.86035C35.813 9.41534 36.1784 12.9756 37.0662 16.4221C38.3399 21.1873 40.6108 24.7461 43.75 26.9727V36.6848C37.0496 45.7023 36.794 43.1578 43.75 47.7486V53.9063C43.7521 55.7704 44.4935 57.5576 45.8117 58.8758C47.1299 60.194 48.9171 60.9354 50.7813 60.9375H60.9375V66.6117C59.4954 68.3698 58.1628 70.215 56.9473 72.1367C56.7623 72.26 56.6058 72.4213 56.4882 72.61C56.3707 72.7986 56.2947 73.0101 56.2655 73.2305C51.6785 80.7494 48.4375 89.5955 48.4375 98.4375C48.4375 100.503 51.5625 100.506 51.5625 98.4375C51.5625 89.0613 55.4948 80.5598 58.8772 74.9805C66.0832 74.7447 73.5942 72.1893 78.7313 70.0275C80.6377 69.225 79.4235 66.3455 77.5196 67.1471Z" fill="black"/>
<path d="M58.0125 21.11C57.1965 22.5637 53.125 29.9596 53.125 32.8125C53.125 34.4701 53.7835 36.0598 54.9556 37.2319C56.1277 38.404 57.7174 39.0625 59.375 39.0625C61.0326 39.0625 62.6223 38.404 63.7944 37.2319C64.9665 36.0598 65.625 34.4701 65.625 32.8125C65.625 29.9596 61.5535 22.5637 60.7375 21.11C60.6017 20.868 60.4039 20.6666 60.1644 20.5264C59.9249 20.3862 59.6525 20.3123 59.375 20.3123C59.0975 20.3123 58.8251 20.3862 58.5856 20.5264C58.3461 20.6666 58.1483 20.868 58.0125 21.11ZM59.375 35.9375C58.5465 35.9365 57.7522 35.607 57.1664 35.0211C56.5805 34.4353 56.251 33.641 56.25 32.8125C56.25 31.7504 57.702 28.4213 59.375 25.1746C61.0479 28.4203 62.5 31.7494 62.5 32.8125C62.499 33.641 62.1695 34.4353 61.5836 35.0211C60.9978 35.607 60.2035 35.9365 59.375 35.9375Z" fill="black"/>
<path d="M28.1246 57.0539V14.0625C28.1232 12.8197 27.6289 11.6283 26.7501 10.7495C25.8713 9.8707 24.6798 9.3764 23.4371 9.375H10.9371C9.69429 9.3764 8.50281 9.8707 7.62404 10.7495C6.74526 11.6283 6.25096 12.8197 6.24956 14.0625V57.0551C-6.27525 67.4111 1.37104 87.5 17.1914 87.5C33.3963 87.5 40.4328 67.1893 28.1246 57.0539ZM16.8474 84.3711C3.78725 84.0639 -2.03814 67.1656 8.75054 59.0625C9.93511 58.1725 9.14819 58.2057 9.37554 31.25H14.0621C16.1281 31.25 16.1306 28.125 14.0621 28.125H9.37456V25H17.1871C19.2531 25 19.2556 21.875 17.1871 21.875H9.37456V18.75H14.0621C16.1281 18.75 16.1306 15.625 14.0621 15.625H9.37456C9.46929 15.2023 8.84722 12.5 10.9371 12.5H23.4371C23.8513 12.5005 24.2485 12.6652 24.5414 12.9582C24.8343 13.2511 24.9991 13.6482 24.9996 14.0625C25.2339 59.4801 24.4353 58.1689 25.6236 59.0625C36.5035 67.2344 30.539 84.6996 16.8474 84.3711Z" fill="black"/>
<path d="M21.875 60.4328V35.9375C21.875 35.5231 21.7104 35.1257 21.4174 34.8326C21.1244 34.5396 20.727 34.375 20.3125 34.375H14.0625C13.6481 34.375 13.2507 34.5396 12.9577 34.8326C12.6647 35.1257 12.5 35.5231 12.5 35.9375V60.4328C1.96294 65.4424 5.62837 81.25 17.1876 81.25C28.7305 81.25 32.4251 65.4492 21.875 60.4328ZM17.1876 78.125C8.46411 78.125 6.32817 65.8762 14.5848 62.9477C16.5583 62.2477 15.2377 60.9402 15.625 37.5H18.7501C19.1461 61.4801 17.8815 62.2707 19.7903 62.9477C28.0436 65.8746 25.9139 78.125 17.1876 78.125Z" fill="black"/>
<path d="M1.5625 87.5C1.5625 89.5658 4.6875 89.5687 4.6875 87.5C4.6875 85.4312 1.5625 85.4312 1.5625 87.5Z" fill="black"/>
<path d="M7.81256 90.625C7.81256 92.6908 10.9376 92.6937 10.9376 90.625C10.9376 88.5562 7.81256 88.5562 7.81256 90.625Z" fill="black"/>
<path d="M23.4375 90.625C23.4375 92.6908 26.5625 92.6937 26.5625 90.625C26.5625 88.5562 23.4375 88.5562 23.4375 90.625Z" fill="black"/>
<path d="M15.625 92.1875C15.625 94.2533 18.75 94.2562 18.75 92.1875C18.75 90.1187 15.625 90.1187 15.625 92.1875Z" fill="black"/>
<path d="M29.6875 87.5C29.6875 89.5658 32.8125 89.5687 32.8125 87.5C32.8125 85.4312 29.6875 85.4312 29.6875 87.5Z" fill="black"/>
<path d="M67.1875 3.125C67.1875 1.05918 64.0625 1.05625 64.0625 3.125C64.0625 5.19375 67.1875 5.19375 67.1875 3.125Z" fill="black"/>
</g>
<defs>
<clipPath id="clip0">
<rect width="100" height="100" fill="white"/>
</clipPath>
</defs>
</svg>
