<svg width="100" height="100" viewBox="0 0 100 100" fill="none" xmlns="http://www.w3.org/2000/svg">
<g clip-path="url(#clip0)">
<path d="M40.6227 23.4375V37.2207L35.5446 43.75L40.6227 46.875L41.7809 50.7344C45.3125 48.4375 47.2547 48.1002 48.4375 48.4375C50.5274 49.0338 51.1481 53.0531 48.4375 54.6875L43.6793 57.0645C44.1187 58.5289 45.1054 59.7677 46.4343 60.5236C47.7633 61.2795 49.3324 61.4944 50.8156 61.1236L57.8102 59.375V67.1875C57.8102 67.1875 55.7399 69.5162 53.2856 73.4359C65.7445 73.3687 79.6852 65.625 79.6852 65.625V23.4375H40.6227Z" fill="#FFDFC5"/>
<path d="M79.6876 36.8693C75.5891 47.2717 67.8013 55.7992 57.8126 60.8223V67.1875C57.8126 67.1875 55.7423 69.5162 53.288 73.4359C65.7469 73.3687 79.6876 65.625 79.6876 65.625V36.8693Z" fill="#FFD5C7"/>
<path d="M53.2879 73.436C44.0111 88.2479 45.4715 99.2465 45.3125 100H90.625V98.4375C90.625 87.5 89.0625 78.125 79.6875 65.625C79.6875 65.625 65.7469 73.3688 53.2879 73.436Z" fill="#96E0D7"/>
<path d="M85.4209 74.6219C81.5031 81.5741 75.6264 87.22 68.5228 90.8562C61.4192 94.4924 53.4028 95.9582 45.4721 95.0711C45.2498 97.4793 45.3287 98.9207 45.3125 99.9994H90.625C90.3998 95.5984 91.4326 86.2275 85.4209 74.6219Z" fill="#97D0DD"/>
<path d="M71.875 76.5625C69.3886 76.5625 67.004 77.5502 65.2459 79.3084C63.4877 81.0665 62.5 83.4511 62.5 85.9375V100H81.25V85.9375C81.25 83.4511 80.2623 81.0665 78.5041 79.3084C76.746 77.5502 74.3614 76.5625 71.875 76.5625Z" fill="#AFEFDE"/>
<path d="M70.3125 87.5C72.0384 87.5 73.4375 86.1009 73.4375 84.375C73.4375 82.6491 72.0384 81.25 70.3125 81.25C68.5866 81.25 67.1875 82.6491 67.1875 84.375C67.1875 86.1009 68.5866 87.5 70.3125 87.5Z" fill="#D5F7ED"/>
<path d="M75 90.625C75.8629 90.625 76.5625 89.9255 76.5625 89.0625C76.5625 88.1996 75.8629 87.5 75 87.5C74.1371 87.5 73.4375 88.1996 73.4375 89.0625C73.4375 89.9255 74.1371 90.625 75 90.625Z" fill="#D5F7ED"/>
<path d="M32.849 5.97012C32.849 5.97012 31.2865 27.8451 47.9467 28.125H62.4975C65.1883 27.8451 67.185 29.4076 67.185 32.1203C67.185 40.3451 67.2045 52.8451 79.685 57.5326C99.3498 32.4688 96.0262 7.78164 84.1557 7.34883C78.1227 -6.52988 50.9766 8.91738 38.8594 8.91738C34.3164 8.91738 32.849 5.97012 32.849 5.97012Z" fill="#68676B"/>
<path d="M88.7578 9.01562C87.9645 15.6359 85.6418 21.9808 81.9733 27.5485C78.3048 33.1162 73.3912 37.754 67.6211 41.0951C68.5195 47.6559 71.2682 54.3711 79.6852 57.5326C96.4816 36.1246 96.5049 14.9947 88.7578 9.01562Z" fill="#58575B"/>
<path d="M69.5289 15.625C72.5492 15.625 74.9977 13.1766 74.9977 10.1562C74.9977 7.13594 72.5492 4.6875 69.5289 4.6875C66.5086 4.6875 64.0602 7.13594 64.0602 10.1562C64.0602 13.1766 66.5086 15.625 69.5289 15.625Z" fill="#8A8A8C"/>
<path d="M78.9039 18.75C80.1983 18.75 81.2477 17.7007 81.2477 16.4062C81.2477 15.1118 80.1983 14.0625 78.9039 14.0625C77.6095 14.0625 76.5602 15.1118 76.5602 16.4062C76.5602 17.7007 77.6095 18.75 78.9039 18.75Z" fill="#8A8A8C"/>
<path d="M67.1734 35.6576H64.0625V45.0326H68.7359C73.0506 45.0326 74.9859 41.535 74.9859 37.2201C74.9859 29.4076 67.1734 29.4076 67.1734 35.6576Z" fill="#FFDFC5"/>
<path d="M71.6895 31.2855C72.0894 33.8306 71.8208 36.4359 70.9103 38.8459C69.9997 41.2559 68.4783 43.3879 66.4954 45.0326H68.736C73.0506 45.0326 74.986 41.535 74.986 37.2201C74.986 33.7219 73.4194 31.7914 71.6895 31.2855Z" fill="#FFD5C7"/>
<path d="M68.736 43.4701C66.67 43.4701 66.6674 46.5951 68.736 46.5951C79.042 46.5951 78.6411 29.5867 70.7536 29.5867C65.651 29.5867 64.0444 37.2201 67.1735 37.2201C67.5879 37.2201 67.9853 37.0555 68.2783 36.7625C68.5714 36.4695 68.736 36.072 68.736 35.6576C68.736 31.374 73.4235 31.6332 73.4235 37.2201C73.4235 39.0994 72.9666 43.4701 68.736 43.4701Z" fill="black"/>
<path d="M71.861 75C68.9612 75.0033 66.1811 76.1566 64.1306 78.2071C62.0801 80.2576 60.9267 83.0377 60.9235 85.9375V98.4375C60.9235 100.503 64.0485 100.506 64.0485 98.4375V85.9375C64.0485 83.8655 64.8716 81.8784 66.3367 80.4132C67.8018 78.9481 69.789 78.125 71.861 78.125C73.933 78.125 75.9201 78.9481 77.3852 80.4132C78.8504 81.8784 79.6735 83.8655 79.6735 85.9375V98.4375C79.6735 100.503 82.7985 100.506 82.7985 98.4375V85.9375C82.7952 83.0377 81.6418 80.2576 79.5913 78.2071C77.5409 76.1566 74.7608 75.0033 71.861 75Z" fill="black"/>
<path d="M94.113 32.3309C95.9405 24.562 95.6665 17.525 93.3411 12.5161C91.5552 8.66841 88.6761 6.34009 85.1667 5.87075C81.7233 -0.602685 74.0339 -0.625341 66.83 0.693018C64.7987 1.06411 65.3577 4.14087 67.3926 3.76685C83.3456 0.846924 81.3419 8.81255 84.0897 8.91255C87.5647 9.03872 89.4973 11.6573 90.5067 13.8317C92.5091 18.1454 92.7147 24.6272 91.071 31.6153C89.1975 39.579 85.0893 47.8635 79.1651 55.6405C76.4733 54.4561 74.3678 52.8104 72.7505 50.6325C71.52 48.9739 69.0083 50.834 70.2417 52.4954C72.2038 55.1379 74.8489 57.1817 78.111 58.5854V64.6852C75.318 66.1235 65.6921 70.7721 56.3052 71.7096C60.3968 65.8502 59.1802 70.401 59.361 59.3764C59.361 59.139 59.3069 58.9046 59.2028 58.6912C59.0986 58.4778 58.9472 58.2909 58.76 58.1448C58.5729 57.9987 58.3548 57.8971 58.1225 57.8479C57.8902 57.7986 57.6498 57.803 57.4194 57.8606L50.4251 59.6092C49.5481 59.8297 48.6244 59.7732 47.7809 59.4475C46.9374 59.1217 46.2155 58.5427 45.7143 57.7901C46.7272 57.0014 52.4507 55.9623 51.7469 50.6772C51.2833 47.1936 48.3612 45.2219 42.6868 48.3573L42.1075 46.4272C41.818 45.4623 41.0645 45.4491 37.8366 43.3344C43.3936 35.5583 42.0177 41.1079 42.1725 28.6401C47.0534 30.5026 51.2936 29.2829 62.485 29.6889C64.551 29.6889 64.5536 26.5639 62.485 26.5639H48.0079C47.7321 26.3698 35.5352 27.876 34.4288 9.47837C38.838 11.7704 45.2969 9.80317 55.5091 6.80259C57.4923 6.22075 56.6147 3.2229 54.6301 3.80376C46.095 6.31294 36.6339 9.48579 34.2352 5.26606C33.5794 3.85435 31.4012 4.2061 31.2829 5.86177C30.7725 12.9614 32.8669 22.5866 39.0501 26.9727V36.687C32.3075 45.7608 32.0544 43.1375 39.287 47.8963C40.254 50.5916 40.0376 51.7659 41.2331 52.2038C41.461 52.2873 41.7053 52.3166 41.9465 52.2893C42.1877 52.262 42.4192 52.1789 42.6227 52.0465C46.1319 49.7643 47.5512 49.8153 47.9989 49.9424C48.7186 50.1479 49.1837 52.3592 47.6669 53.3233L42.9688 55.668C40.1954 57.0534 44.8132 64.2325 51.1825 62.6407L56.2354 61.3774V66.6129C49.4233 74.7913 43.7354 86.9926 43.7354 98.4387C43.7354 100.504 46.8604 100.507 46.8604 98.4387C46.8604 89.0637 50.7921 80.5622 54.1743 74.9829C64.6145 74.6452 75.5925 69.4864 79.2134 67.6358C94.0501 88.1069 86.0206 100.001 90.611 100.001C91.0254 100.001 91.4228 99.8368 91.7159 99.5438C92.0089 99.2507 92.1735 98.8533 92.1735 98.4389C92.1735 86.9936 90.3333 77.3969 81.236 65.1082V58.0721C87.6466 49.794 92.0962 40.9039 94.113 32.3309Z" fill="black"/>
<path d="M60.9258 4.6875C62.9917 4.6875 62.9946 1.5625 60.9258 1.5625C58.8571 1.5625 58.8571 4.6875 60.9258 4.6875Z" fill="black"/>
<path d="M35.9258 50H20.3008C18.2348 50 18.2323 53.125 20.3008 53.125H35.9258C37.992 53.125 37.9946 50 35.9258 50Z" fill="black"/>
<path d="M35.9258 56.25H15.6133C13.5473 56.25 13.5448 59.375 15.6133 59.375H35.9258C37.992 59.375 37.9946 56.25 35.9258 56.25Z" fill="black"/>
<path d="M21.2371 63.2801C18.7762 67.5356 12.3285 65.5619 12.491 60.8373C12.4848 60.8178 12.5666 59.5483 11.3192 59.2283C6.64495 58.0293 6.64319 51.3463 11.3192 50.1463C12 49.9715 12.4883 49.4303 12.4883 48.4371C12.4883 43.6799 18.8297 41.9391 21.2354 46.0948C21.4429 46.4534 21.7845 46.7149 22.1849 46.8218C22.5852 46.9286 23.0117 46.872 23.3703 46.6645C25.9625 45.1645 21.5799 40.625 17.1758 40.625C15.2668 40.6274 13.4245 41.3276 11.9958 42.5939C10.5672 43.8602 9.65087 45.6051 9.41936 47.5C3.10471 50.1899 3.1092 59.1865 9.41936 61.875C10.3082 69.2774 20.1821 71.3451 23.9422 64.8453C24.9766 63.0567 22.2725 61.4893 21.2371 63.2801Z" fill="black"/>
</g>
<defs>
<clipPath id="clip0">
<rect width="100" height="100" fill="white"/>
</clipPath>
</defs>
</svg>
