<svg width="100" height="100" viewBox="0 0 100 100" fill="none" xmlns="http://www.w3.org/2000/svg">
<path d="M66.7887 79.5915L55.9262 73.3156L32.0624 73.2602L27.9256 74.4821L24.5037 87.9527L33.8762 98.535H54.1054L66.7887 79.5915Z" fill="#FAF8F8"/>
<path d="M5.85754 88.863L8.13023 96.4469L30.8717 98.535H34.2626L33.5315 97.1737C29.4596 89.6013 28.314 79.2067 28.0095 75.0895C27.9935 74.8844 27.9675 74.6813 27.9254 74.482L15.6016 78.1227C10.5343 79.6208 6.76505 83.7751 5.85754 88.863Z" fill="#F0E9E6"/>
<path d="M3.43193 98.535C2.18513 98.535 1.24137 97.4362 1.46009 96.2393L2.89536 88.3826C4.00496 82.152 8.55353 77.15 14.7625 75.3278L21.9248 73.2277C23.3976 72.7959 24.9035 73.8041 25.0137 75.2998C25.3818 80.2909 26.636 90.6589 30.8715 98.535H3.43193Z" fill="#BAE6EF"/>
<path d="M71.373 46.9086L72.6659 47.2556C75.7587 48.0859 77.5732 51.2125 76.7187 54.2389C75.5402 58.4131 71.1267 60.8686 66.8607 59.7233L22.2537 47.7472C17.9877 46.6019 15.4849 42.2896 16.6634 38.1151C17.5179 35.0887 20.7177 33.3084 23.8105 34.1389L25.1036 34.486L71.373 46.9086Z" fill="#F2BB88"/>
<path d="M56.8568 75.1533L55.0755 73.316L54.632 61.9389H54.6316V61.9386L54.4538 61.9423L33.3573 62.3374C33.3573 62.3374 33.7847 68.022 33.7851 68.0224L32.2523 71.6597L32.0222 73.5994C31.7774 75.6469 32.3507 77.7219 33.6768 79.3272C35.3594 81.3637 38.4451 83.496 43.9907 83.496C49.5357 83.496 52.6213 81.3643 54.3039 79.328C54.9907 78.4969 55.4754 77.5397 55.7494 76.5256C55.7496 76.5244 55.7496 76.5232 55.75 76.5223L56.8568 75.1533Z" fill="#F2D1A5"/>
<path d="M55.9266 73.316L54.6327 61.939H54.6308L54.4545 61.9429L33.358 62.3374L32.661 68.2086L32.2524 71.6598C34.2533 73.1402 36.3844 74.1949 38.6116 74.7926C40.1078 75.193 41.7001 75.3981 43.3485 75.3981C45.8186 75.3981 48.4514 74.9299 51.1661 74.0303C51.7662 73.8315 52.4017 74.217 52.4716 74.8313L52.4734 74.8473C52.5151 75.2139 52.7683 75.5248 53.125 75.6477L55.7442 76.5487L55.7502 76.5252C55.7502 76.5252 55.7502 76.5233 55.7502 76.5213L56.8558 75.1541L55.9266 73.316Z" fill="#F2BB88"/>
<path d="M71.373 46.9086C68.6663 56.4954 67.5875 59.5934 62.0584 63.9386C54.432 69.932 46.1274 73.1637 39.5691 71.4029C33.0108 69.6422 27.5728 62.7208 24.1669 53.7656C22.1041 48.3422 22.2525 45.2162 23.9347 38.746C24.2664 37.4704 25.7301 35.7561 26.1758 34.1774L28.9778 11.8612L77.891 32.1311L71.373 46.9086Z" fill="#F2D1A5"/>
<path d="M30.2687 12.3975L28.7295 13.3092C29.231 12.9678 29.7441 12.6659 30.2687 12.3975Z" fill="#F2BB88"/>
<path d="M77.8914 32.1311L71.4311 46.7795C71.1529 44.2109 70.0219 41.5796 68.2105 39.578C62.2418 32.986 52.8066 37.2374 43.9532 23.9392C43.9512 23.9386 43.9498 23.9363 43.9504 23.9343C43.8206 23.7394 43.6919 23.5408 43.5617 23.3396C43.1797 22.7427 42.2993 22.7191 41.8869 23.2972C41.5185 23.8142 41.145 24.3134 40.7606 24.7918C38.7605 27.2773 36.5025 29.175 33.4094 29.9914C29.6985 30.9723 25.0413 37.2032 23.9349 38.7456C24.2682 37.4696 24.659 36.0633 25.1044 34.4852L28.7297 13.3083L30.2689 12.3965L77.8914 32.1311Z" fill="#F2BB88"/>
<path d="M30.2687 12.3975L28.7295 13.3092C29.231 12.9678 29.7441 12.6659 30.2687 12.3975Z" fill="#F2BB88"/>
<path d="M42.9744 17.136C42.3237 18.1128 41.581 20.5255 40.8916 21.3829C38.8927 23.8683 36.6328 25.7668 33.5406 26.5832C29.2995 27.7029 25.1038 34.4862 25.1038 34.4862C20.3349 33.2059 20.1723 25.688 21.5184 20.9202C24.6578 9.801 33.2181 5.96952 40.4177 7.95997C41.2976 8.20333 42.1712 8.55626 43.0153 9.0674C43.4761 9.3465 43.8917 10.1192 44.331 10.5004C44.8797 10.1754 45.4754 9.43107 46.0434 9.15959C51.2299 6.68105 57.1709 6.41269 62.9524 7.99844C65.3439 8.65431 67.2152 9.88596 69.4875 11.1512C85.8144 20.2419 82.1482 45.1966 71.5344 45.9996C71.5344 45.9996 71.6534 44.889 71.6196 44.1126C71.4974 41.3161 70.3295 38.3651 68.3416 36.1692C62.3732 29.5764 52.9388 33.8291 44.0848 20.5308C43.685 19.931 43.371 17.8099 42.9744 17.136Z" fill="#7A6D79"/>
<path d="M71.374 46.908C71.374 46.908 71.4218 46.6796 71.4737 46.3857C71.6057 45.6533 71.6534 44.8882 71.6169 44.1126C78.9365 37.9805 80.1222 17.6518 66.1176 9.85451C64.4123 8.90451 62.6538 8.12032 60.8712 7.51016C63.9683 8.11485 67.0497 9.26017 69.9796 10.8914C86.3069 19.9829 81.9877 46.105 71.374 46.908Z" fill="#685E68"/>
<path d="M54.4498 97.1736C57.5136 91.4761 58.9199 84.1837 59.5584 79.1672C59.6665 78.3176 59.129 77.5172 58.2883 77.2705L55.7477 76.525C56.0041 75.5797 56.0762 74.5855 55.958 73.5972L55.9259 73.316L60.0479 74.525L72.3537 78.1344C77.435 79.6246 75.1549 94.6515 75.1549 94.6515L57.1096 98.535H53.7188L54.4498 97.1736Z" fill="#F0E9E6"/>
<path d="M83.7174 97.7949C84.9642 97.7949 85.908 96.6961 85.6893 95.4992L83.3882 88.4181C82.2786 82.1876 78.6025 78.3473 72.3935 76.525L66.3592 75.0037C64.8864 74.5719 64.5263 73.907 64.416 75.4027C64.3879 75.7836 62.9062 76.093 62.8669 76.533C62.3906 81.8589 61.0219 91.2599 57.1096 98.5352H82.5644L83.7174 97.7949Z" fill="#BAE6EF"/>
<path d="M62.8658 76.5328L69.4133 78.4528C75.6223 80.2751 80.1708 85.2771 81.2804 91.5076L82.5643 98.535H84.5491C85.7969 98.535 86.7403 97.4354 86.522 96.24L85.0859 88.3825C83.9763 82.152 79.4278 77.15 73.2188 75.3277L66.0564 73.2281C64.5843 72.7965 63.0781 73.8043 62.968 75.3004C62.9399 75.6813 62.9061 76.0934 62.8658 76.5328Z" fill="#94D8E6"/>
<path d="M29.9532 90.2003C29.7191 89.4242 28.8837 88.9804 28.0882 89.2085C27.2922 89.4368 26.837 90.2511 27.0711 91.0273C28.4763 95.6841 29.7926 98.938 29.8481 99.0743C30.0818 99.6493 30.647 99.9999 31.2449 99.9999C31.4289 99.9999 31.6162 99.9667 31.7977 99.8966C32.569 99.5987 32.9465 98.7476 32.6413 97.9954C32.6283 97.9632 31.3172 94.7204 29.9532 90.2003Z" fill="black"/>
<path d="M46.7721 51.8744C45.4674 51.9242 44.1574 51.5545 43.0832 50.8306C42.4006 50.3709 41.4649 50.5375 40.9934 51.2029C40.5218 51.8685 40.6928 52.7808 41.3752 53.2408C42.8843 54.258 44.7047 54.8086 46.5376 54.8086C46.6553 54.8086 46.7737 54.8062 46.8917 54.8017C47.7207 54.7695 48.3658 54.0881 48.3327 53.2797C48.2997 52.4713 47.5997 51.8437 46.7721 51.8744Z" fill="black"/>
<path d="M58.6813 48.5863L54.3752 44.9347C53.7493 44.404 52.8003 44.4683 52.2559 45.0788C51.7116 45.6892 51.7779 46.6146 52.4038 47.1454L56.7099 50.797C56.9943 51.0382 57.3454 51.1564 57.6949 51.1564C58.1145 51.1564 58.5321 50.9859 58.8292 50.6527C59.3735 50.0425 59.3072 49.1173 58.6813 48.5863Z" fill="black"/>
<path d="M41.9892 42.1737C41.8646 41.3739 41.0989 40.8245 40.2783 40.9458L34.6368 41.7827C33.8167 41.9044 33.2529 42.6513 33.3776 43.4511C33.4906 44.1763 34.1309 44.6958 34.8608 44.6958C34.9359 44.6958 35.012 44.6903 35.0885 44.679L40.73 43.8421C41.5503 43.7206 42.114 42.9737 41.9892 42.1737Z" fill="black"/>
<path d="M42.7313 58.7338C40.8649 58.2059 38.9541 58.392 37.6202 59.2317C36.9234 59.6705 36.7231 60.5772 37.1734 61.2569C37.6234 61.9364 38.5534 62.1317 39.2502 61.6926C39.7018 61.4084 40.6654 61.1996 41.8942 61.5473C43.1231 61.8951 43.8223 62.5742 44.0474 63.05C44.3012 63.5858 44.8444 63.9012 45.4122 63.9012C45.6229 63.9012 45.837 63.8576 46.0409 63.766C46.7942 63.427 47.1228 62.5567 46.7751 61.8221C46.1096 60.4166 44.598 59.2623 42.7313 58.7338Z" fill="black"/>
<path d="M100 26.8564C100.009 24.6248 97.9136 22.782 93.5933 21.223C90.1261 19.9718 85.3018 18.9144 79.2526 18.0763C77.8017 15.4325 75.7888 13.0159 73.119 11.0487C72.457 10.561 71.5151 10.6891 71.0149 11.3342C70.5148 11.9797 70.646 12.8983 71.3078 13.386C77.4749 17.9298 79.7459 25.7281 79.1901 32.602C75.8451 33.0623 72.0903 33.443 67.9713 33.7129C65.6586 31.7887 63.013 30.9447 60.2406 30.0615C55.1436 28.4375 49.876 26.7539 44.7364 18.0063L46.1006 10.7002C51.7844 7.69199 58.6697 7.54511 65.5719 10.3033C66.3396 10.6102 67.2169 10.2518 67.5315 9.50333C67.8462 8.75469 67.4788 7.89922 66.7111 7.59238C59.1672 4.5777 51.2901 4.7365 44.9175 7.99531C43.8359 7.20058 42.6338 6.616 41.2702 6.21913C39.2533 5.63221 37.1745 5.47146 35.1397 5.71775C29.5749 3.2068 24.0956 1.27455 20.3618 0.500912C15.7255 -0.473705 12.8802 -0.028975 11.6634 1.8603C10.807 3.19039 10.9761 4.96579 12.166 7.13749C12.5569 7.85098 13.4671 8.12051 14.1987 7.73906C14.9304 7.35781 15.2066 6.4703 14.8156 5.75682C14.0984 4.44782 14.0397 3.67906 14.2075 3.41852C14.6648 2.70894 18.6738 2.0185 30.6444 6.97831C30.3398 7.1162 30.0372 7.26034 29.7393 7.41874C27.5378 8.58926 24.7968 10.7145 22.6191 14.5331C21.2134 13.2649 19.9464 12.0436 18.843 10.8867C18.278 10.2944 17.3274 10.2608 16.7199 10.8117C16.1125 11.3627 16.078 12.2897 16.643 12.8821C17.9882 14.2924 19.5418 15.7764 21.2733 17.313C21.1221 17.6837 20.9765 18.0671 20.8365 18.4624C9.90311 20.3993 4.35269 23.0935 4.33928 26.4748C4.32726 29.5459 8.54014 31.974 17.2002 33.8783C16.3272 34.6713 15.6698 35.6936 15.3097 36.9034C13.9035 41.6296 16.5421 46.5785 21.2271 48.2084C21.4366 49.8343 21.8856 51.5176 22.604 53.4844C24.8623 59.6668 27.966 64.6261 31.559 67.9554L31.0484 72.2209L26.3891 73.59C26.1041 73.1099 25.7105 72.691 25.2264 72.3656C24.2462 71.7072 23.0309 71.5214 21.8912 71.8562L14.7499 73.9537C11.9765 74.6814 8.34105 76.9037 6.2298 79.2606C3.96834 81.7549 2.46136 84.8272 1.87251 88.1386L0.0234446 98.2785C-0.121765 99.075 0.422621 99.8356 1.2394 99.9772C1.32833 99.9926 1.41686 100 1.50418 100C2.21841 100 2.85193 99.501 2.98131 98.7914L4.83159 88.6452C5.3255 85.8669 6.58412 83.2965 8.47204 81.2106C10.3796 79.2608 12.5942 77.6565 15.6166 76.7588L22.7577 74.6613C23.115 74.5564 23.3898 74.6896 23.5218 74.7781C23.6538 74.8666 23.8791 75.0697 23.9057 75.4332C24.103 78.1119 24.5731 81.1131 25.3031 84.3534C25.4812 85.1436 26.283 85.6438 27.0927 85.4698C27.9029 85.2962 28.4154 84.5149 28.2376 83.7247C27.6501 81.1172 27.2415 78.6838 27.0146 76.466L30.8714 75.3326C31.0286 77.14 31.7202 78.8733 32.8715 80.2692C34.6438 82.4176 38.0694 84.9788 44.3246 84.9788C50.5804 84.9788 54.0062 82.4172 55.7783 80.2684C56.9408 78.859 57.635 77.1057 57.7832 75.2797L61.6482 76.4248C61.4181 79.0082 60.9796 82.5208 60.143 86.2757L58.2888 92.7949C57.6288 94.6445 56.8835 96.3468 56.0736 97.8555C55.6888 98.5723 55.9728 99.4574 56.7077 99.8326C56.93 99.9463 57.1683 100 57.4031 100C57.9443 100 58.4668 99.7141 58.7352 99.2143C59.6201 97.5658 60.4301 95.7144 61.1427 93.7117C61.1531 93.6826 61.1625 93.6529 61.1709 93.623L63.0494 87.0188C63.057 86.9925 63.0637 86.9659 63.0697 86.9391C64.0881 82.3805 64.542 78.166 64.7433 75.433C64.7699 75.0695 64.9954 74.8666 65.1272 74.7779C65.259 74.6892 65.5338 74.556 65.8913 74.6611L73.032 76.7586C78.6762 78.418 82.8088 82.9727 83.8184 88.6513L85.6677 98.7914C85.8131 99.5881 86.5938 100.118 87.4096 99.9772C88.2264 99.8354 88.7708 99.075 88.6256 98.2785L86.7773 88.1446C85.5733 81.3729 80.6388 75.9352 73.8987 73.9535L66.7576 71.856C65.6181 71.5214 64.4026 71.707 63.4226 72.3654C62.9515 72.6818 62.5669 73.0873 62.2839 73.5511L57.5944 72.1619L57.1473 68.4161C58.9481 67.3847 60.7645 66.1767 62.5761 64.7948C64.264 63.5073 65.5683 62.3204 66.6376 61.0583C67.3314 61.2114 68.0326 61.2887 68.731 61.2887C70.3111 61.2887 71.8748 60.8995 73.2978 60.1344C75.5188 58.9403 77.1316 56.9737 77.8388 54.5965C78.1957 53.3971 78.2003 52.2057 77.8935 51.0928C79.3876 51.6068 80.7928 52.0398 82.0905 52.381C84.4894 53.0119 86.4899 53.3279 88.1064 53.3279C90.3673 53.3279 91.8772 52.7098 92.6756 51.4703C93.801 49.7228 93.1847 47.3017 90.7917 44.0687C88.903 41.5171 85.9599 38.5112 82.0447 35.1309C90.3076 33.8182 96.3032 31.9178 98.6536 29.6494C99.5429 28.7914 99.9958 27.8517 100 26.8564ZM72.9459 44.9075C73.0709 42.0356 72.165 38.9661 70.4585 36.4635C73.3815 36.235 76.159 35.9477 78.7549 35.6071C78.6183 36.2522 78.4583 36.8836 78.2702 37.4942C77.1332 41.1829 75.1842 43.845 72.9459 44.9075ZM59.3074 32.8465C60.4729 33.2178 61.5783 33.5703 62.6148 33.9912C58.6885 34.145 54.2688 34.201 49.9403 34.1348C49.321 33.7633 48.7019 33.3895 48.0834 33.0108C44.4041 30.7578 40.8458 28.4355 37.5009 26.1168C39.7422 24.8318 41.5111 22.9777 43.0526 20.9636C48.5271 29.4115 54.4684 31.3047 59.3074 32.8465ZM24.6792 31.9559C23.4505 31.0947 22.9235 29.4418 22.7 28.0779C22.3415 25.8916 22.5592 23.0534 23.2682 20.671C23.3982 20.2339 23.541 19.8108 23.6896 19.3942C26.0254 21.3501 28.6185 23.3732 31.4178 25.4248C28.4713 27.0244 25.9118 30.234 24.6792 31.9559ZM34.1036 27.4845C34.1473 27.4736 34.1888 27.4599 34.232 27.4488C37.3119 29.6215 40.6012 31.8115 44.0404 33.9742C38.2677 33.7451 32.7897 33.3106 27.8512 32.6916C29.4497 30.6475 31.9125 28.0301 34.1036 27.4845ZM31.1774 9.99103C34.0394 8.46914 37.3183 8.12656 40.4109 9.02677C41.4256 9.32189 42.3153 9.75685 43.1137 10.3428L41.7395 17.7014C39.6214 20.7474 37.5524 23.0454 34.7628 24.1851C31.1292 21.5751 27.8039 18.9958 24.9264 16.5512C26.4774 13.5999 28.5935 11.3649 31.1774 9.99103ZM7.34361 26.4859C7.34582 25.9377 9.56241 23.6148 19.9494 21.6081C19.4763 23.9576 19.39 26.4464 19.7333 28.5404C19.9208 29.6838 20.236 30.7029 20.6648 31.5875C10.6752 29.8137 7.18098 27.242 7.34361 26.4859ZM18.1949 37.7196C18.8224 35.5436 21.208 34.6823 23.2978 35.0116C22.055 39.2483 21.2885 42.2235 21.1225 44.9413C18.6341 43.5067 17.3515 40.5544 18.1949 37.7196ZM54.7653 73.7992C54.9656 75.4775 54.4815 77.1662 53.4372 78.4326C51.4579 80.8325 48.3919 82.0495 44.3244 82.0495C40.2573 82.0495 37.1915 80.8328 35.2122 78.4332C34.1675 77.1666 33.6836 75.4773 33.8843 73.7982L34.3236 70.1287C35.7378 71.0529 37.2067 71.7414 38.7135 72.1677C40.0821 72.5548 41.5416 72.7455 43.073 72.7455C46.5284 72.7455 50.3477 71.7752 54.3006 69.9066L54.7653 73.7992ZM60.7255 62.4872C52.9112 68.4476 45.1939 70.9509 39.5507 69.3538C33.9084 67.7573 28.7631 61.6147 25.4341 52.5012C23.3115 46.69 23.849 43.7446 26.2958 35.4454C33.0529 36.3467 40.856 36.8995 49.0678 37.0501C51.9256 38.7508 54.7847 40.372 57.5984 41.8845C57.8283 42.0081 58.0771 42.0669 58.3222 42.0669C58.8518 42.0669 59.3653 41.7933 59.6391 41.3091C60.0397 40.6007 59.7755 39.7096 59.0489 39.319C57.7099 38.5991 56.3602 37.8542 55.0052 37.0877C59.1095 37.0637 63.0779 36.9346 66.8435 36.7114C66.9475 36.8192 67.051 36.9272 67.1522 37.0419C68.9966 39.1335 70.0379 42.081 69.942 44.7259C68.3895 44.0249 66.7842 43.2677 65.1318 42.4542C64.3916 42.0896 63.4879 42.3796 63.1139 43.1015C62.74 43.8237 63.0372 44.7046 63.7777 45.0693C65.6971 46.0144 67.5569 46.8857 69.3487 47.6833C66.8235 56.0981 65.7327 58.668 60.7255 62.4872ZM74.9538 53.7801C74.4697 55.4065 73.3667 56.752 71.8475 57.5686C70.8136 58.1245 69.671 58.3893 68.5221 58.3536C69.8693 55.9815 70.8501 53.085 72.1179 48.8855C73.9269 49.7281 75.6474 51.4488 74.9538 53.7801ZM90.1315 49.9121C89.8365 50.3703 87.94 50.8847 82.873 49.5523C80.6502 48.9677 78.0919 48.1021 75.2759 46.99C77.8272 45.3687 79.9066 42.3632 81.1474 38.3374C81.1518 38.3227 81.156 38.3079 81.1606 38.2934C89.6522 45.839 90.5375 49.2816 90.1315 49.9121ZM96.5404 27.567C94.8353 29.2125 89.8319 30.8897 82.2458 32.141C82.4573 28.5847 82.0042 24.8011 80.6943 21.2474C93.9959 23.2822 96.9992 25.9423 96.9954 26.8443C96.9948 27.0252 96.829 27.2886 96.5404 27.567Z" fill="black"/>
</svg>
