<svg width="100" height="100" viewBox="0 0 100 100" fill="none" xmlns="http://www.w3.org/2000/svg">
<g clip-path="url(#clip0)">
<path d="M40.2288 33.0969C40.2288 33.0969 34.5288 25.4178 34.6897 14.4648C34.6897 14.4648 37.9124 15.2318 40.7567 14.4648C46.3317 12.9615 51.8171 1.90116 61.4813 1.57889C71.1456 1.25663 73.0198 5.76678 73.0198 5.76678C73.0198 5.76678 76.5751 3.6535 81.8839 4.37088C89.8302 5.44471 96.8101 17.5506 89.7159 34.1808" fill="#E5907B"/>
<path d="M80.9083 26.5092C77.4585 23.3268 73.6181 17.8209 72.0755 15.5217C71.7212 14.9938 70.9698 14.9445 70.5403 15.4135C62.7583 23.9131 52.6779 26.7455 48.1671 27.6266C46.7929 27.8949 45.8038 29.1006 45.8038 30.5008V39.5996C45.8038 49.8035 54.0757 58.0754 64.2796 58.0754C74.4835 58.0754 82.7554 49.8035 82.7554 39.5996V30.7793C82.7554 29.1619 82.097 27.6057 80.9083 26.5092Z" fill="#FDD4BB"/>
<path d="M64.2796 54.5598C54.0757 54.5598 45.8038 46.2879 45.8038 36.084V39.5996C45.8038 49.8035 54.0757 58.0754 64.2796 58.0754C74.4835 58.0754 82.7554 49.8035 82.7554 39.5996V36.084C82.7554 46.2879 74.4835 54.5598 64.2796 54.5598Z" fill="#F7C4A8"/>
<path d="M45.8038 39.5996V33.0746C44.9825 32.623 44.0392 32.3654 43.0356 32.3654C39.8579 32.3654 37.2817 34.9416 37.2817 38.1193C37.2817 41.297 39.8579 43.8732 43.0356 43.8732C44.1681 43.8732 45.2231 43.5447 46.1134 42.9798C45.9108 41.8839 45.8038 40.7543 45.8038 39.5996Z" fill="#EBBAA1"/>
<path d="M82.7554 39.5996V33.0746C83.5767 32.623 84.5198 32.3654 85.5235 32.3654C88.7013 32.3654 91.2774 34.9416 91.2774 38.1193C91.2774 41.297 88.7013 43.8732 85.5235 43.8732C84.3911 43.8732 83.336 43.5447 82.4458 42.9798C82.6485 41.8839 82.7554 40.7543 82.7554 39.5996Z" fill="#EBBAA1"/>
<path d="M43.0358 40.3576C40.4712 40.3576 38.2995 38.6793 37.5563 36.3615C37.3786 36.9158 37.2817 37.506 37.2817 38.1193C37.2817 41.2971 39.8579 43.8732 43.0356 43.8732C44.1681 43.8732 45.2231 43.5447 46.1134 42.9799C45.9134 41.8984 45.8075 40.7842 45.8048 39.6455C44.9833 40.0982 44.0403 40.3576 43.0358 40.3576Z" fill="#E8A990"/>
<path d="M85.5235 40.3576C84.519 40.3576 83.5761 40.0982 82.7544 39.6455C82.7517 40.7842 82.6458 41.8984 82.4458 42.9799C83.336 43.5447 84.3911 43.8732 85.5235 43.8732C88.7013 43.8732 91.2774 41.2971 91.2774 38.1193C91.2774 37.506 91.1806 36.9158 91.0028 36.3615C90.2599 38.6795 88.0882 40.3576 85.5235 40.3576Z" fill="#E8A990"/>
<path d="M72.9327 55.9264C70.3511 57.2975 67.4064 58.0754 64.2796 58.0754C61.1529 58.0754 58.2081 57.2975 55.6265 55.9264C43.1589 58.5363 33.795 69.5914 33.795 82.8346V98.4375H94.7644V82.8346C94.7644 69.5914 85.4005 58.5365 72.9327 55.9264Z" fill="#B3E59F"/>
<path d="M33.795 94.9219H94.7644V98.4375H33.795V94.9219Z" fill="#95D6A4"/>
<path d="M64.2796 58.0754C61.1294 58.0754 58.1637 57.2861 55.5684 55.8959C55.5507 56.1231 55.5389 56.3518 55.5389 56.5836C55.5389 61.4107 59.4522 65.324 64.2796 65.324C69.1067 65.324 73.02 61.4107 73.02 56.5836C73.02 56.352 73.0083 56.1231 72.9905 55.8959C70.3954 57.2861 67.4298 58.0754 64.2796 58.0754Z" fill="#EBBAA1"/>
<path d="M80.7568 89.5248H94.7645V98.4375H80.7568V89.5248Z" fill="#FDD4BB"/>
<path d="M47.8026 98.4375H33.795V89.5248H47.8026V98.4375Z" fill="#FDD4BB"/>
<path d="M80.7568 89.5248H94.7645V98.4375H80.7568V89.5248Z" fill="#FDD4BB"/>
<path d="M47.8026 98.4375H33.795V89.5248H47.8026V98.4375Z" fill="#FDD4BB"/>
<path d="M80.7568 94.9219H94.7645V98.4375H80.7568V94.9219Z" fill="#F7C4A8"/>
<path d="M47.8026 98.4375H33.795V94.9219H47.8026V98.4375Z" fill="#F7C4A8"/>
<path d="M23.1835 90.2689C23.8476 89.5578 24.257 88.6058 24.257 87.556C24.257 85.3578 22.4749 83.576 20.2769 83.576H20.2491C19.4001 82.147 19.5489 80.1201 19.8159 78.6912C19.9849 77.7875 19.214 76.9812 18.3064 77.1265C12.2364 78.098 12.0023 83.5762 12.0023 83.5762H11.9745C9.77629 83.5762 7.99446 85.3582 7.99446 87.5562C7.99446 88.606 8.40403 89.558 9.0679 90.2691C6.92961 90.4031 5.23547 92.1748 5.23547 94.3469C5.23547 96.6062 7.06692 98.4377 9.32629 98.4377H22.9249C25.1843 98.4377 27.0157 96.6062 27.0157 94.3469C27.0159 92.1746 25.3218 90.4029 23.1835 90.2689Z" fill="#E5907B"/>
<path d="M22.9251 94.9219H9.32629C7.69719 94.9219 6.29465 93.9672 5.63665 92.5889C5.38176 93.1217 5.23547 93.7162 5.23547 94.3467C5.23547 96.6061 7.06692 98.4375 9.32629 98.4375H22.9249C25.1843 98.4375 27.0157 96.6061 27.0157 94.3467C27.0157 93.7162 26.8695 93.1217 26.6146 92.5889C25.9568 93.9672 24.5542 94.9219 22.9251 94.9219Z" fill="#D58475"/>
<path d="M52.7596 37.9512C53.1599 38.6648 54.0664 38.9053 54.7603 38.5107L58.5467 36.3795C59.0174 36.1144 59.3047 35.6127 59.2949 35.0726C59.2849 34.5326 58.9797 34.0414 58.4996 33.7937L54.7133 31.8402C53.9928 31.4682 53.106 31.751 52.7342 32.4721C52.3621 33.1932 52.6451 34.0793 53.3662 34.4512L54.731 35.1555L53.3191 35.9502C52.6121 36.3484 52.3615 37.2443 52.7596 37.9512Z" fill="black"/>
<path d="M75.295 35.9504L73.8831 35.1556L75.2479 34.4514C75.969 34.0795 76.252 33.1933 75.88 32.4723C75.5079 31.7512 74.6216 31.4685 73.9009 31.8404L70.1145 33.7939C69.6344 34.0416 69.3292 34.5326 69.3192 35.0728C69.3094 35.6129 69.5967 36.1148 70.0675 36.3797L73.8538 38.5109C74.5477 38.9055 75.4544 38.665 75.8546 37.9514C76.2526 37.2443 76.002 36.3484 75.295 35.9504Z" fill="black"/>
<path d="M89.1537 66.0578C88.4861 66.5187 88.3186 67.4338 88.7795 68.1014C91.79 72.4615 93.3814 77.5781 93.3814 82.8979V88.132H82.2852V81.2092C82.2852 80.3978 81.6275 79.74 80.816 79.74C80.0045 79.74 79.3469 80.3978 79.3469 81.2092V89.601V97.0617H63.6967C62.8852 97.0617 62.2275 97.7195 62.2275 98.5309C62.2275 99.3422 62.8852 100 63.6967 100H94.8506C95.6621 100 96.3197 99.3422 96.3197 98.5309V82.8979C96.3197 76.9789 94.5484 71.2851 91.1975 66.432C90.7363 65.7644 89.8215 65.5969 89.1537 66.0578ZM93.3816 97.0619H82.2852V91.0701H93.3816V97.0619Z" fill="black"/>
<path d="M57.8259 97.0617H49.2675V89.601V81.2092C49.2675 80.3979 48.6099 79.74 47.7984 79.74C46.9871 79.74 46.3292 80.3979 46.3292 81.2092V88.132H35.2326V82.8979C35.2326 76.8748 37.3343 71 41.1509 66.3555C44.525 62.2494 49.0921 59.2635 54.156 57.8176C54.7619 62.8824 59.0816 66.8227 64.307 66.8227C69.5326 66.8227 73.8523 62.8822 74.458 57.8172C78.3234 58.9186 81.9017 60.9121 84.8937 63.6473C85.491 64.1936 86.4207 64.1543 86.9691 63.5543C87.5166 62.9555 87.4748 62.0262 86.8761 61.4787C83.8738 58.7342 80.3388 56.6631 76.5179 55.383C79.8517 52.8012 82.3486 49.1891 83.5298 45.0295C84.1951 45.2275 84.8886 45.3307 85.5918 45.3307C89.5806 45.3307 92.8257 42.0855 92.8257 38.0967C92.8257 36.5357 92.3273 35.09 91.4834 33.9068C95.1062 24.9131 95.1228 16.1639 91.5013 9.78945C89.2732 5.86758 85.8621 3.32988 82.1421 2.82734C78.2326 2.29922 75.1789 3.17598 73.5679 3.8248C73.15 3.33867 72.5515 2.77305 71.7142 2.23027C69.2283 0.617772 65.7771 -0.127149 61.4546 0.0173818C57.8816 0.136522 54.5246 1.54101 50.8904 4.43769C50.2558 4.94336 50.1517 5.86758 50.6572 6.50215C51.163 7.13652 52.0875 7.24121 52.7216 6.73516C55.8367 4.25234 58.6429 3.05058 61.5525 2.95371C69.6412 2.68457 71.5822 6.01484 71.7142 6.2625C72.0074 7.0959 73.0806 7.42851 73.8152 6.94433C73.8464 6.92578 76.9925 5.0959 81.7492 5.73867C84.5523 6.11738 87.1759 8.12285 88.947 11.2404C90.4183 13.8303 93.2441 20.8477 89.1503 31.8018C88.0988 31.2051 86.8851 30.8623 85.5921 30.8623C85.1537 30.8623 84.7169 30.9039 84.2878 30.9826V30.742C84.2878 28.6992 83.4408 26.7463 81.9642 25.384C81.9642 25.3838 81.9642 25.3838 81.964 25.3838C78.6103 22.29 74.8146 16.8371 73.338 14.6361C72.5115 13.3326 70.5084 13.1895 69.4966 14.3543C61.8839 22.6689 51.8449 25.3672 47.8822 26.1412C45.822 26.5436 44.3267 28.3611 44.3267 30.4627V30.9822C43.8974 30.9035 43.4609 30.8619 43.0224 30.8619C42.2318 30.8619 41.471 30.9912 40.7584 31.2268C39.4351 29.0748 36.4667 23.4744 36.1533 16.1145C37.4832 16.2502 39.3501 16.2918 41.1216 15.8141C43.691 15.1213 46.005 12.9145 48.4546 10.5779C49.0417 10.018 49.0636 9.08809 48.5039 8.50098C47.9435 7.91387 47.0138 7.89219 46.4267 8.45176C44.3509 10.4318 42.2041 12.4791 40.3566 12.9773C37.9158 13.6355 35.0273 12.9728 35.0005 12.9666C34.1191 12.7334 33.1818 13.4619 33.1916 14.3742C33.0609 23.2588 36.5669 30.0262 38.2103 32.7006C36.7253 34.0264 35.7882 35.9533 35.7882 38.0959C35.7882 42.0848 39.0334 45.3299 43.0222 45.3299C43.7253 45.3299 44.4189 45.2266 45.0843 45.0287C46.2656 49.1881 48.7619 52.7998 52.0953 55.3816C46.9625 57.1053 42.3531 60.2643 38.8812 64.4895C34.6339 69.6582 32.2947 76.1957 32.2947 82.8973V98.5303C32.2947 99.3416 32.9523 99.9994 33.7638 99.9994H33.764H57.8261C58.6375 99.9994 59.2953 99.3416 59.2953 98.5303C59.2951 97.7193 58.6375 97.0617 57.8259 97.0617ZM84.2877 39.5795V34.0037C84.7076 33.8703 85.1482 33.8006 85.5919 33.8006C87.9607 33.8006 89.8878 35.7277 89.8878 38.0965C89.8878 40.4652 87.9607 42.3924 85.5919 42.3924C85.0875 42.3924 84.5912 42.3037 84.1232 42.1332C84.2306 41.2967 84.2877 40.4447 84.2877 39.5795ZM43.0222 42.3924C40.6535 42.3924 38.7263 40.4652 38.7263 38.0965C38.7263 35.7277 40.6535 33.8006 43.0222 33.8006C43.4662 33.8006 43.9068 33.8703 44.3265 34.0037V39.5795C44.3265 40.4447 44.3835 41.2967 44.4908 42.1332C44.023 42.3037 43.5269 42.3924 43.0222 42.3924ZM64.3072 63.8844C60.8597 63.8844 57.966 61.4777 57.2121 58.257C59.4181 59.0979 61.8095 59.56 64.3072 59.56C66.8048 59.56 69.1962 59.0979 71.4023 58.257C70.6484 61.4779 67.7544 63.8844 64.3072 63.8844ZM47.2648 39.5795V30.4631C47.2648 29.7635 47.7613 29.1588 48.4455 29.0252C52.622 28.2092 63.0988 25.3947 71.2455 16.7877C72.9711 19.325 76.6328 24.4635 79.9718 27.5436L79.9716 27.5434C80.8474 28.3512 81.3496 29.517 81.3496 30.742V39.5793C81.3496 48.9764 73.7044 56.6217 64.3072 56.6217C54.9099 56.6217 47.2648 48.9766 47.2648 39.5795ZM46.3294 97.0617H35.233V91.0699H46.3294V97.0617Z" fill="black"/>
<path d="M56.7076 44.5769C56.1998 45.2098 56.2975 46.1391 56.9303 46.6469C57.5631 47.1545 58.4842 47.058 58.9918 46.425C59.1891 46.1877 59.7309 45.7055 60.1871 45.6752C60.2992 45.742 60.5248 45.9558 60.6783 46.1012C61.3707 46.7572 62.4176 47.7488 64.3078 47.7488C66.1983 47.7488 67.2447 46.7572 67.9375 46.1012C68.0908 45.9557 68.3166 45.742 68.4285 45.6752C68.884 45.7053 69.4248 46.1859 69.6231 46.4236C70.1318 47.0492 71.0516 47.1478 71.6818 46.642C72.3147 46.1342 72.4158 45.2096 71.9082 44.5767C71.7568 44.3883 70.3733 42.7355 68.3842 42.7355C67.218 42.7355 66.4658 43.448 65.9168 43.9683C65.3324 44.5219 64.9955 44.8107 64.3078 44.8107C63.6203 44.8107 63.2834 44.5219 62.6992 43.9683C62.15 43.4482 61.3979 42.7355 60.2316 42.7355C58.2426 42.7355 56.8588 44.3885 56.7076 44.5769Z" fill="black"/>
<path d="M74.8119 29.7043C75.6234 29.7043 76.281 29.0465 76.281 28.2352V26.8155C76.281 26.0041 75.6234 25.3463 74.8119 25.3463C74.0004 25.3463 73.3428 26.0041 73.3428 26.8155V28.2352C73.343 29.0467 74.0006 29.7043 74.8119 29.7043Z" fill="black"/>
<path d="M70.5171 25.7178C71.3286 25.7178 71.9863 25.06 71.9863 24.2487V22.8287C71.9863 22.0174 71.3286 21.3596 70.5171 21.3596C69.7056 21.3596 69.048 22.0174 69.048 22.8287V24.2487C69.0482 25.06 69.7058 25.7178 70.5171 25.7178Z" fill="black"/>
<path d="M65.7194 28.9944C66.5309 28.9944 67.1885 28.3366 67.1885 27.5252V26.1053C67.1885 25.294 66.5309 24.6362 65.7194 24.6362C64.9081 24.6362 64.2502 25.294 64.2502 26.1053V27.5252C64.2502 28.3368 64.9079 28.9944 65.7194 28.9944Z" fill="black"/>
<path d="M42.2502 55.2811V50.5846C42.2502 49.7733 41.5925 49.1154 40.781 49.1154C39.9695 49.1154 39.3119 49.7733 39.3119 50.5846V55.2811C39.3119 56.0924 39.9695 56.7502 40.781 56.7502C41.5925 56.7502 42.2502 56.0924 42.2502 55.2811Z" fill="black"/>
<path d="M33.7636 62.0996C34.5751 62.0996 35.2327 61.4418 35.2327 60.6305V46.9803C35.2327 46.169 34.5751 45.5111 33.7636 45.5111C32.9522 45.5111 32.2944 46.169 32.2944 46.9803V60.6305C32.2946 61.4418 32.9522 62.0996 33.7636 62.0996Z" fill="black"/>
<path d="M86.3641 50.5846V55.2811C86.3641 56.0924 87.0218 56.7502 87.8333 56.7502C88.6448 56.7502 89.3024 56.0924 89.3024 55.2811V50.5846C89.3024 49.7733 88.6448 49.1154 87.8333 49.1154C87.0218 49.1154 86.3641 49.7733 86.3641 50.5846Z" fill="black"/>
<path d="M94.8505 45.5111C94.039 45.5111 93.3813 46.169 93.3813 46.9803V60.6305C93.3813 61.4418 94.039 62.0996 94.8505 62.0996C95.662 62.0996 96.3196 61.4418 96.3196 60.6305V46.9803C96.3196 46.169 95.662 45.5111 94.8505 45.5111Z" fill="black"/>
<path d="M25.3609 89.4563C25.5683 88.8752 25.6765 88.2582 25.6765 87.6285C25.6765 84.9506 23.7373 82.717 21.1894 82.258C20.9556 81.4447 20.9572 80.325 21.2019 79.0164C21.3699 78.118 21.0896 77.1912 20.4523 76.5369C19.8191 75.8871 18.9076 75.5852 18.0132 75.7281C13.1835 76.5012 11.208 79.885 10.6417 82.3184C8.23784 82.8885 6.44448 85.0529 6.44448 87.6285C6.44448 88.2582 6.55268 88.8752 6.76011 89.4563C4.92905 90.374 3.68042 92.2692 3.68042 94.4322C3.68022 97.5024 6.17788 100 9.248 100H22.8728C25.9429 100 28.4406 97.5024 28.4406 94.4322C28.4406 92.2692 27.1917 90.374 25.3609 89.4563ZM22.8728 97.0619H9.248C7.798 97.0619 6.61831 95.8822 6.61831 94.4322C6.61831 93.0498 7.69995 91.8992 9.08081 91.8127C9.64819 91.7772 10.1439 91.4176 10.3541 90.8895C10.564 90.3611 10.4507 89.7594 10.0626 89.344C9.62397 88.8742 9.38237 88.2649 9.38237 87.6283C9.38237 86.2395 10.5123 85.1096 11.9011 85.1096H11.9289C12.7158 85.1096 13.3624 84.5 13.396 83.7137C13.3968 83.7024 13.4689 82.5703 14.147 81.3871C14.983 79.9285 16.3726 79.0127 18.2798 78.6631C17.9876 80.3428 17.8859 82.6361 18.9287 84.391C19.1933 84.8365 19.6732 85.1098 20.1915 85.1098H20.2193C21.6082 85.1098 22.738 86.2397 22.738 87.6285C22.738 88.2649 22.4964 88.8742 22.0578 89.344C21.6699 89.7594 21.5564 90.3613 21.7664 90.8895C21.9763 91.4176 22.4722 91.7772 23.0396 91.8127C24.4203 91.8992 25.5021 93.0498 25.5021 94.4322C25.5025 95.8822 24.3228 97.0619 22.8728 97.0619Z" fill="black"/>
</g>
<defs>
<clipPath id="clip0">
<rect width="100" height="100" fill="white"/>
</clipPath>
</defs>
</svg>
