<svg width="100" height="100" viewBox="0 0 100 100" fill="none" xmlns="http://www.w3.org/2000/svg">
<g clip-path="url(#clip0)">
<path d="M92.9303 60.9425C92.9303 66.2937 88.8092 70.6789 83.5693 71.098C83.296 71.1212 83.018 71.1329 82.7401 71.1329C82.0265 71.1329 81.3315 71.061 80.6599 70.9198H19.2814C18.6096 71.0612 17.9147 71.1329 17.2011 71.1329H17.194C11.5672 71.1283 7.0105 66.5693 7.0105 60.9425C7.0105 55.6376 11.0644 51.2803 16.2442 50.8008C16.5592 50.7683 16.879 50.7544 17.2009 50.7544C17.6296 50.7544 18.0487 50.78 18.4633 50.8308H81.4772C81.8918 50.78 82.3112 50.7544 82.7399 50.7544C83.3445 50.7544 83.9375 50.8077 84.5119 50.9097C89.2955 51.746 92.9303 55.9203 92.9303 60.9425Z" fill="#FFD0A6"/>
<path d="M84.5119 50.9097V63.8174C84.5119 66.3238 84.1852 68.7631 83.569 71.0983C83.2958 71.1214 83.0178 71.1331 82.7398 71.1331C82.0262 71.1331 81.3313 71.0612 80.6597 70.9201H19.2812C18.6094 71.0614 17.9144 71.1331 17.2009 71.1331H17.1939C16.5732 68.7865 16.2441 66.3379 16.2441 63.8176V50.8012C16.5592 50.7687 16.8789 50.7549 17.2009 50.7549C17.6295 50.7549 18.0487 50.7804 18.4633 50.8313H81.4772C81.8918 50.7804 82.3112 50.7549 82.7398 50.7549C83.3445 50.7545 83.9375 50.8077 84.5119 50.9097Z" fill="#E8B182"/>
<path d="M81.4768 46.2396V67.4173C81.4768 82.5719 70.6356 95.1947 56.2847 97.9537C54.3737 98.322 52.3977 98.5143 50.3776 98.5143C33.2029 98.5143 19.2806 84.592 19.2806 67.4173V46.2398C19.2806 29.0651 33.2029 15.1405 50.3776 15.1405C52.3975 15.1405 54.3735 15.3328 56.2847 15.7012C62.5046 16.8965 68.0643 19.9451 72.3683 24.2491C77.9951 29.8781 81.4768 37.6523 81.4768 46.2396Z" fill="#E8B182"/>
<path d="M81.4769 46.2395V67.4173C81.4769 82.5718 70.6356 95.1946 56.2848 97.9537C41.9339 95.1946 31.0927 82.5718 31.0927 67.4173V46.2397C31.0927 31.0852 41.9339 18.46 56.2848 15.7012C62.5046 16.8965 68.0643 19.945 72.3683 24.249C77.9951 29.878 81.4769 37.6523 81.4769 46.2395Z" fill="#FFD0A6"/>
<path d="M81.4772 46.2396V50.8309C44.6609 50.7846 32.4228 35.7272 32.4228 35.7272C32.4228 41.9819 26.1681 48.5817 19.2812 50.8309V46.2396C19.2812 29.0649 33.2035 15.1403 50.3782 15.1403C52.3981 15.1403 54.3741 15.3325 56.2853 15.701C62.5052 16.8963 68.0649 19.9448 72.3689 24.2489C77.9955 29.8781 81.4772 37.6523 81.4772 46.2396Z" fill="#5B5B68"/>
<path d="M56.2838 15.701C45.2873 17.816 36.3524 25.7223 32.7735 36.121C32.5349 35.8686 32.4214 35.7272 32.4214 35.7272C32.4214 41.9819 26.1668 48.5817 19.2799 50.8309V46.2396C19.2799 29.0649 33.2021 15.1403 50.3768 15.1403C52.3968 15.1405 54.3727 15.3327 56.2838 15.701Z" fill="#40404C"/>
<path d="M72.7227 3.11881L61.9535 25.2408C61.2538 26.6784 62.3006 28.3523 63.8994 28.3523H70.8012L65.705 41.877C64.9405 43.9058 67.3438 45.6456 69.0325 44.2858L92.1563 25.6639C93.7896 24.3486 92.8596 21.7109 90.7626 21.7109H83.1784L92.1888 5.82422C93.2875 3.88723 91.8882 1.48495 89.6614 1.48495H75.3354C74.2237 1.48495 73.2094 2.11933 72.7227 3.11881Z" fill="#F95C5C"/>
<path d="M82.9628 49.2748V46.2406C82.9628 42.8208 82.4343 39.4612 81.3941 36.2373L93.0877 26.8202C94.3291 25.8205 94.7887 24.2033 94.2588 22.7001C93.729 21.197 92.3565 20.2258 90.7626 20.2258H85.7278L93.4805 6.55661C94.2602 5.18213 94.2507 3.54609 93.4553 2.18052C92.6598 0.815344 91.2416 0 89.6612 0H75.3352C73.6673 0 72.1178 0.968988 71.3876 2.4688L64.401 16.8211C61.9106 15.6317 59.2822 14.7655 56.5667 14.2438C54.544 13.8541 52.462 13.6565 50.3787 13.6565C42.6043 13.6565 35.0765 16.4399 29.1822 21.4942C28.5595 22.0279 28.4876 22.9655 29.0214 23.5879C29.315 23.9305 29.7308 24.1063 30.1494 24.1063C30.4915 24.1063 30.8352 23.9887 31.1152 23.7485C36.4716 19.1556 43.3127 16.6262 50.3785 16.6262C52.2737 16.6262 54.1668 16.8058 56.0054 17.16C58.4647 17.6327 60.8438 18.4185 63.0995 19.4938L60.6185 24.5906C60.0643 25.7289 60.1342 27.0493 60.8054 28.1226C61.4768 29.1962 62.6332 29.8371 63.8994 29.8371H68.6547L64.3152 41.3533C63.7331 42.8982 64.2404 44.5867 65.5776 45.5549C66.2199 46.02 66.9602 46.2513 67.699 46.2513C68.4981 46.2513 69.2952 45.9804 69.9634 45.4425L78.8981 38.2471C79.624 40.8383 79.9923 43.5181 79.9923 46.2408V49.3344C69.8191 49.2008 55.8026 47.7699 44.012 42.0338C36.6402 38.4475 33.6008 34.823 33.5743 34.7907C33.1777 34.303 32.517 34.1177 31.925 34.328C31.3326 34.5383 30.937 35.0988 30.937 35.7272C30.937 38.3223 29.6548 41.1863 27.3266 43.7914C25.5189 45.8141 23.2005 47.5178 20.766 48.6472V46.2406C20.766 39.6903 22.8608 33.483 26.824 28.2901C27.3216 27.6381 27.1965 26.7062 26.5445 26.2088C25.8927 25.7113 24.9607 25.8366 24.4632 26.4884C20.1015 32.2035 17.7961 39.0337 17.7961 46.2408V49.2838C17.5472 49.2752 17.3286 49.2693 17.1997 49.2693C10.7617 49.2693 5.52393 54.5061 5.52393 60.9431C5.52393 67.3811 10.7617 72.6189 17.1997 72.6189C17.5357 72.6189 17.8711 72.6011 18.2053 72.5723C20.6834 88.0975 34.1659 100 50.3781 100C52.4616 100 54.5438 99.8022 56.5655 99.4128C65.2046 97.752 72.9193 92.5461 77.7316 85.1302C78.178 84.4421 77.9822 83.5227 77.2942 83.0762C76.6064 82.6297 75.6867 82.8257 75.2402 83.5135C70.8655 90.2553 63.8547 94.9872 56.0042 96.4965C54.1664 96.8507 52.2735 97.0303 50.3781 97.0303C34.0501 97.0303 20.7662 83.7464 20.7662 67.4183V51.8741C24.0444 50.6074 27.129 48.47 29.5411 45.7707C31.4969 43.5823 32.8423 41.1929 33.4816 38.8227C35.258 40.3411 38.1747 42.4719 42.4876 44.5942C49.4345 48.0126 61.5286 52.0737 79.9925 52.3042V67.4183C79.9925 71.3176 79.2468 75.1065 77.7761 78.6797C77.4639 79.4382 77.8256 80.3058 78.5841 80.6181C78.7691 80.6941 78.9605 80.7301 79.1488 80.7301C79.7327 80.7301 80.2867 80.3834 80.5225 79.8101C81.4788 77.4864 82.1544 75.0797 82.5492 72.6155C82.6129 72.6165 82.6765 72.6191 82.7402 72.6191C89.1773 72.6191 94.414 67.3813 94.414 60.9433C94.4144 54.5805 89.2972 49.3942 82.9628 49.2748ZM68.1011 43.1291C67.7677 43.3976 67.4681 43.2568 67.3194 43.1493C67.1707 43.0416 66.9436 42.801 67.0945 42.4007L72.1907 28.876C72.3625 28.4198 72.2996 27.9084 72.0224 27.5075C71.745 27.1067 71.2886 26.8673 70.8011 26.8673H63.8994C63.5719 26.8673 63.3979 26.6674 63.3235 26.5482C63.249 26.429 63.1455 26.1852 63.2888 25.8908L74.058 3.76884C74.2942 3.28355 74.7957 2.96993 75.3354 2.96993H89.6614C90.3985 2.96993 90.7654 3.46333 90.8889 3.67558C91.0125 3.88783 91.2608 4.45053 90.897 5.09144L81.8867 20.9782C81.6259 21.4379 81.6293 22.0014 81.8952 22.4582C82.1613 22.915 82.65 23.1957 83.1784 23.1957H90.7626C91.2334 23.1957 91.4057 23.5398 91.4578 23.6877C91.51 23.8356 91.5916 24.2116 91.2249 24.507L68.1011 43.1291ZM17.2003 69.6489C12.3999 69.6489 8.49445 65.7435 8.49445 60.9431C8.49445 56.1437 12.3999 52.2392 17.2003 52.2392C17.3074 52.2392 17.5288 52.2458 17.7967 52.2555V57.2352C15.7672 57.1915 13.2249 57.8904 12.0219 60.6572C11.6948 61.4092 12.0395 62.2841 12.7917 62.611C12.9846 62.695 13.1853 62.7346 13.3829 62.7346C13.9563 62.7346 14.5024 62.4005 14.7455 61.8412C15.3823 60.3764 16.7932 60.1525 17.7967 60.2V67.4181C17.7967 68.1582 17.8238 68.8922 17.8727 69.6202C17.6491 69.6375 17.425 69.6489 17.2003 69.6489ZM82.8868 69.6452C82.9363 68.9069 82.9628 68.1644 82.9628 67.4181V60.2C83.966 60.1527 85.3754 60.3774 86.0119 61.8412C86.2551 62.4005 86.8011 62.7346 87.3745 62.7346C87.5721 62.7346 87.7731 62.6948 87.9657 62.611C88.7179 62.2841 89.0626 61.4092 88.7355 60.6572C87.5331 57.8914 84.992 57.1921 82.9628 57.2352V52.2448C87.6596 52.3634 91.4445 56.2181 91.4445 60.9431C91.4445 65.6944 87.6187 69.5666 82.8868 69.6452Z" fill="black"/>
<path d="M42.868 80.7781C47.0094 76.6366 53.7476 76.6368 57.8889 80.7781C58.1787 81.0679 58.5589 81.2131 58.9388 81.2131C59.3188 81.2131 59.6989 81.0681 59.9888 80.7781C60.5687 80.1981 60.5687 79.2579 59.9888 78.6781C54.6895 73.3788 46.0672 73.379 40.7678 78.6781C40.1879 79.2581 40.1879 80.1983 40.7678 80.7781C41.3478 81.358 42.288 81.358 42.868 80.7781Z" fill="black"/>
<path d="M32.8544 67.1734C33.0508 67.8119 33.6384 68.2219 34.2732 68.2219C34.4177 68.2219 34.5651 68.2008 34.7104 68.156L42.5593 65.7409C43.0571 65.5876 43.4382 65.1849 43.5637 64.6794C43.6893 64.1739 43.5408 63.6397 43.1725 63.2715L37.8896 57.9886C37.3097 57.4086 36.3694 57.4086 35.7897 57.9886C35.2097 58.5685 35.2097 59.5088 35.7897 60.0885L39.3286 63.6275L33.837 65.3172C33.0532 65.5585 32.6132 66.3895 32.8544 67.1734Z" fill="black"/>
<path d="M66.2733 68.222C66.9081 68.222 67.4958 67.8117 67.6922 67.1734C67.9333 66.3895 67.4934 65.5585 66.7095 65.3174L61.2181 63.6277L64.7571 60.0887C65.337 59.5088 65.337 58.5685 64.7571 57.9888C64.1772 57.4087 63.2369 57.4089 62.6572 57.9888L57.3743 63.2717C57.006 63.64 56.8575 64.1742 56.983 64.6796C57.1085 65.1851 57.4897 65.5878 57.9874 65.7411L65.8364 68.1562C65.9817 68.2008 66.1288 68.222 66.2733 68.222Z" fill="black"/>
<path d="M14.6264 18.0787L8.88372 19.4039C8.40853 19.5136 8.01749 19.8496 7.83751 20.3028C7.65753 20.756 7.71159 21.2688 7.98205 21.6745L14.0197 30.731C14.3058 31.1603 14.7766 31.3925 15.2566 31.3925C15.5397 31.3925 15.8258 31.3117 16.0789 31.1428C16.7614 30.688 16.9457 29.766 16.4907 29.0837L11.6448 21.8149L17.4003 20.4867C17.8769 20.3767 18.2689 20.0391 18.4481 19.5839C18.6273 19.1287 18.5708 18.6145 18.2972 18.209L9.94299 5.83174C9.48424 5.15183 8.56098 4.97244 7.88147 5.4316C7.20155 5.89035 7.02256 6.8134 7.48132 7.49312L14.6264 18.0787Z" fill="black"/>
<path d="M25.8839 18.2951C26.1257 18.8572 26.6734 19.1938 27.2487 19.1938C27.4445 19.1938 27.6435 19.1548 27.8348 19.0727C28.5882 18.7486 28.9362 17.8752 28.6121 17.1216L26.2174 11.5546L30.1398 11.3778C30.6285 11.3558 31.0752 11.0945 31.3336 10.6793C31.5921 10.2639 31.6296 9.74789 31.4337 9.29983L28.3684 2.28446C28.0399 1.53287 27.164 1.18955 26.4132 1.51822C25.6616 1.8467 25.3187 2.72203 25.6469 3.47342L27.8469 8.50804L23.9377 8.68426C23.4504 8.70624 23.0051 8.96581 22.7461 9.37922C22.4871 9.79244 22.4477 10.3066 22.6404 10.7545L25.8839 18.2951Z" fill="black"/>
</g>
<defs>
<clipPath id="clip0">
<rect width="100" height="100" fill="white"/>
</clipPath>
</defs>
</svg>
