<svg width="100" height="100" viewBox="0 0 100 100" fill="none" xmlns="http://www.w3.org/2000/svg">
<g clip-path="url(#clip0)">
<path d="M37.3547 33.0969C37.3547 33.0969 31.6547 25.4178 31.8156 14.4647C31.8156 14.4647 35.0383 15.2317 37.8826 14.4647C43.4576 12.9614 48.9429 1.901 58.6074 1.57874C68.2719 1.25647 70.1459 5.76663 70.1459 5.76663C70.1459 5.76663 73.7011 3.65335 79.0099 4.37073C86.9562 5.44456 93.9361 17.5504 86.842 34.1807" fill="#565E75"/>
<path d="M78.0339 26.5093C74.5841 23.3266 70.7437 17.821 69.2011 15.5216C68.8468 14.9936 68.0954 14.9444 67.666 15.4134C59.8839 23.913 49.8035 26.7454 45.2927 27.6264C43.9185 27.895 42.9294 29.1005 42.9294 30.5007V39.5995C42.9294 49.8034 51.2013 58.0753 61.4052 58.0753C71.6091 58.0753 79.881 49.8034 79.881 39.5995V30.7792C79.8812 29.162 79.2228 27.6057 78.0339 26.5093Z" fill="#FDD4BB"/>
<path d="M61.4055 54.5598C51.2016 54.5598 42.9297 46.288 42.9297 36.084V39.5997C42.9297 49.8036 51.2016 58.0755 61.4055 58.0755C71.6094 58.0755 79.8812 49.8036 79.8812 39.5997V36.084C79.8812 46.2878 71.6094 54.5598 61.4055 54.5598Z" fill="#F7C4A8"/>
<path d="M42.9297 39.5997V33.0747C42.1084 32.6231 41.165 32.3655 40.1615 32.3655C36.9838 32.3655 34.4076 34.9417 34.4076 38.1194C34.4076 41.2971 36.9838 43.8733 40.1615 43.8733C41.2939 43.8733 42.349 43.5448 43.2392 42.9799C43.0365 41.884 42.9297 40.7543 42.9297 39.5997Z" fill="#EBBAA1"/>
<path d="M79.8812 39.5997V33.0747C80.7025 32.6231 81.6457 32.3655 82.6494 32.3655C85.8271 32.3655 88.4033 34.9417 88.4033 38.1194C88.4033 41.2971 85.8271 43.8733 82.6494 43.8733C81.517 43.8733 80.4619 43.5448 79.5717 42.9799C79.7742 41.884 79.8812 40.7543 79.8812 39.5997Z" fill="#EBBAA1"/>
<path d="M40.1615 40.3577C37.5968 40.3577 35.4252 38.6795 34.6822 36.3616C34.5045 36.9159 34.4076 37.5061 34.4076 38.1194C34.4076 41.2971 36.9838 43.8733 40.1615 43.8733C41.2939 43.8733 42.349 43.5448 43.2392 42.9799C43.0392 41.8985 42.9336 40.7842 42.9306 39.6456C42.109 40.0983 41.166 40.3577 40.1615 40.3577Z" fill="#E8A990"/>
<path d="M82.6494 40.3577C81.6449 40.3577 80.7019 40.0983 79.8802 39.6456C79.8775 40.7842 79.7717 41.8985 79.5717 42.9799C80.4619 43.5448 81.517 43.8733 82.6494 43.8733C85.8271 43.8733 88.4033 41.2971 88.4033 38.1194C88.4033 37.5061 88.3064 36.9159 88.1289 36.3616C87.3857 38.6795 85.2138 40.3577 82.6494 40.3577Z" fill="#E8A990"/>
<path d="M30.9207 98.4375V82.8344C30.9207 69.5912 40.2845 58.5364 52.7521 55.9262C55.3337 57.2973 58.2785 58.0752 61.4052 58.0752C64.532 58.0752 67.4767 57.2973 70.0583 55.9262C82.5259 58.5362 91.8898 69.5912 91.8898 82.8344V98.4375H30.9207Z" fill="#976ECA"/>
<path d="M30.9207 94.9219H91.89V98.4375H30.9207V94.9219Z" fill="#8665C6"/>
<path d="M61.4054 58.0754C58.2552 58.0754 55.2896 57.2861 52.6943 55.8959C52.6765 56.123 52.6648 56.3517 52.6648 56.5836C52.6648 61.4109 56.5781 65.324 61.4052 65.324C66.2326 65.324 70.1456 61.4107 70.1456 56.5836C70.1456 56.3519 70.1339 56.123 70.1161 55.8959C67.521 57.2861 64.5556 58.0754 61.4054 58.0754Z" fill="#EBBAA1"/>
<path d="M77.8823 89.5248H91.8899V98.4375H77.8823V89.5248Z" fill="#FDD4BB"/>
<path d="M77.8823 94.9219H91.8899V98.4375H77.8823V94.9219Z" fill="#F7C4A8"/>
<path d="M41.5438 72.6826H13.9692C10.7331 72.6826 8.10986 75.3059 8.10986 78.542V92.5781C8.10986 95.8141 10.7331 98.4375 13.9692 98.4375H44.0968C47.3327 98.4375 49.9562 95.8141 49.9562 92.5781V67.4756C49.9562 66.6365 48.9681 66.1881 48.3366 66.7406L41.5438 72.6826Z" fill="#FFDE91"/>
<path d="M44.0968 94.9219H13.9692C10.7331 94.9219 8.10986 92.2984 8.10986 89.0625V92.5781C8.10986 95.8141 10.7331 98.4375 13.9692 98.4375H44.0968C47.3327 98.4375 49.9562 95.8141 49.9562 92.5781V89.0625C49.9562 92.2984 47.3327 94.9219 44.0968 94.9219Z" fill="#FFCE6E"/>
<path d="M88.2818 66.3804C87.8195 65.7138 86.9043 65.5483 86.2373 66.0106C85.5707 66.4729 85.4051 67.3882 85.8675 68.055C88.8992 72.4255 90.5015 77.5581 90.5015 82.8979V88.1321H79.405V81.2093C79.405 80.3977 78.7472 79.7401 77.9359 79.7401C77.1246 79.7401 76.4668 80.3977 76.4668 81.2093V97.062H49.9548C50.8775 95.8349 51.425 94.3104 51.425 92.6604V67.5095C51.425 66.5368 50.8748 65.6829 49.989 65.2808C49.1031 64.8788 48.098 65.0266 47.366 65.6671L40.9753 71.2571H35.0898C38.3611 64.6874 44.2177 59.8186 51.2763 57.8167C51.8818 62.8819 56.2017 66.8225 61.4275 66.8225C66.6531 66.8225 70.9726 62.8821 71.5785 57.8171C75.4207 58.912 78.981 60.8891 81.9621 63.5995C82.2435 63.8554 82.5974 63.9817 82.95 63.9817C83.3494 63.9817 83.7474 63.8198 84.0373 63.5009C84.5832 62.9007 84.5388 61.9716 83.9386 61.4259C80.9492 58.7079 77.4343 56.655 73.6384 55.3831C76.9724 52.8011 79.4713 49.1903 80.6523 45.0302C81.317 45.2278 82.0099 45.3308 82.7125 45.3308C86.7013 45.3308 89.9465 42.0856 89.9465 38.0968C89.9465 36.5358 89.4478 35.0901 88.6039 33.9069C92.2267 24.9136 92.2433 16.1644 88.622 9.78974C86.3939 5.86787 82.9826 3.32998 79.2627 2.82724C75.3537 2.29931 72.299 3.17607 70.6884 3.82451C70.2705 3.33837 69.6718 2.77294 68.8347 2.23017C66.3486 0.617867 62.897 -0.126469 58.575 0.0176714C55.0017 0.136812 51.6449 1.5415 48.0105 4.43798C47.3761 4.94384 47.2716 5.86806 47.7775 6.50263C48.2832 7.1372 49.2076 7.2413 49.8419 6.73583C52.957 4.25283 55.7632 3.05127 58.673 2.95439C66.7675 2.68232 68.7027 6.01572 68.8345 6.26298C68.9847 6.66357 69.2943 6.94599 69.6978 7.09306C70.1068 7.2415 70.5521 7.16728 70.9291 6.94833C70.9611 6.92998 74.1707 5.10419 78.8691 5.73896C81.6724 6.11767 84.2959 8.12314 86.0672 11.2409C87.5385 13.8308 90.3642 20.8481 86.2703 31.802C85.2187 31.2054 84.0051 30.8628 82.7121 30.8628C82.2736 30.8628 81.8369 30.9044 81.4076 30.9831V30.7425C81.4076 28.6995 80.5607 26.7466 79.084 25.3843C75.7304 22.2907 71.9343 16.8378 70.458 14.6372C70.0377 14.0108 69.3656 13.619 68.614 13.5622C67.8576 13.5058 67.1299 13.794 66.6162 14.3552C59.0033 22.67 48.9644 25.3681 45.0017 26.1421C42.9416 26.5446 41.4464 28.3622 41.4464 30.4638V30.9835C41.0171 30.9048 40.5806 30.8632 40.1421 30.8632C39.3525 30.8632 38.5927 30.9921 37.8808 31.227C36.5585 29.0671 33.5892 23.4479 33.2732 16.1159C34.6031 16.2515 36.4701 16.2931 38.2414 15.8153C40.8107 15.1226 43.1246 12.9157 45.5742 10.579C46.1613 10.019 46.1834 9.08935 45.6234 8.50205C45.0634 7.91494 44.1336 7.89306 43.5464 8.45302C41.4705 10.4329 39.324 12.4802 37.4765 12.9784C35.0359 13.6364 32.1466 12.9737 32.1203 12.9677C31.6869 12.8649 31.2298 12.9636 30.8781 13.2374C30.5263 13.511 30.3177 13.9294 30.3113 14.3751C30.1806 23.2597 33.6869 30.0272 35.3302 32.7015C33.8453 34.0272 32.9082 35.9542 32.9082 38.0968C32.9082 42.0856 36.1533 45.3308 40.1421 45.3308C40.8447 45.3308 41.5375 45.2278 42.2023 45.0302C43.383 49.1886 45.88 52.7981 49.2119 55.3798C41.4673 57.9612 35.1568 63.6919 31.8457 71.2573H13.9C9.85288 71.2573 6.5603 74.5499 6.5603 78.5972V92.6602C6.5603 96.7075 9.85288 100 13.9 100H21.7767C22.588 100 23.2459 99.3425 23.2459 98.5309C23.2459 97.7194 22.588 97.0618 21.7767 97.0618H13.9C11.473 97.0618 9.49839 95.0872 9.49839 92.6602V78.5972C9.49839 76.1702 11.473 74.1954 13.9 74.1954H41.5275C41.8834 74.1954 42.2269 74.0663 42.4947 73.8321L48.4871 68.5903V92.6602C48.4871 95.0872 46.5125 97.0618 44.0855 97.0618H30.8841H27.6474C26.8361 97.0618 26.1783 97.7194 26.1783 98.5309C26.1783 99.3425 26.8361 100 27.6474 100H30.8841H44.0855H91.9707C92.782 100 93.4398 99.3425 93.4398 98.5309V82.8977C93.4398 76.9565 91.6562 71.245 88.2818 66.3804ZM61.4273 63.8847C57.98 63.8847 55.0861 61.4782 54.3322 58.2573C56.5382 59.0981 58.9297 59.5602 61.4273 59.5602C63.925 59.5602 66.3164 59.0981 68.5224 58.2575C67.7685 61.4782 64.8746 63.8847 61.4273 63.8847ZM82.7123 33.8009C85.081 33.8009 87.0082 35.728 87.0082 38.0968C87.0082 40.4655 85.081 42.3927 82.7123 42.3927C82.2084 42.3927 81.7127 42.304 81.2451 42.1339C81.3523 41.2974 81.4078 40.445 81.4078 39.5798V34.004C81.8275 33.8706 82.2683 33.8009 82.7123 33.8009ZM40.1425 42.3927C37.7738 42.3927 35.8466 40.4655 35.8466 38.0968C35.8466 35.728 37.7738 33.8009 40.1425 33.8009C40.5865 33.8009 41.0271 33.8706 41.4468 34.004V39.5798C41.4468 40.445 41.5023 41.2974 41.6095 42.1339C41.1421 42.304 40.6464 42.3927 40.1425 42.3927ZM44.3849 39.5798V30.4634C44.3849 29.7638 44.8814 29.1591 45.5654 29.0255C49.742 28.2097 60.2187 25.3952 68.3656 16.788C70.0912 19.3253 73.7533 24.4638 77.092 27.5438C77.9675 28.3515 78.4697 29.5173 78.4697 30.7425V39.5798C78.4697 48.9768 70.8246 56.622 61.4275 56.622C52.0304 56.622 44.3849 48.9768 44.3849 39.5798ZM90.5017 97.062H79.4052V91.0702H90.5017V97.062Z" fill="black"/>
<path d="M57.2514 48.94C58.0627 48.94 58.7205 48.2824 58.7205 47.4709C58.7205 45.9666 59.9443 44.7428 61.4486 44.7428C62.9529 44.7428 64.1768 45.9666 64.1768 47.4709C64.1768 48.2824 64.8346 48.94 65.6459 48.94C66.4572 48.94 67.115 48.2824 67.115 47.4709C67.115 44.3465 64.5732 41.8047 61.4486 41.8047C58.3242 41.8047 55.7822 44.3465 55.7822 47.4709C55.7824 48.2824 56.44 48.94 57.2514 48.94Z" fill="black"/>
<path d="M50.5976 37.0947C50.6962 37.0826 53.0408 36.7922 55.1048 35.8946C55.8488 35.5709 56.1898 34.7055 55.8662 33.9614C55.5425 33.2174 54.6771 32.8764 53.9329 33.2C52.271 33.9229 50.2638 34.1752 50.2439 34.1778C49.4392 34.2758 48.8658 35.0072 48.963 35.8123C49.0531 36.558 49.6869 37.1055 50.4197 37.1055C50.4783 37.1055 50.5378 37.1018 50.5976 37.0947Z" fill="black"/>
<path d="M67.7499 35.8946C69.814 36.792 72.1581 37.0826 72.2569 37.0947C72.3169 37.1018 72.3761 37.1055 72.4349 37.1055C73.1669 37.1055 73.7999 36.5588 73.8907 35.8137C73.9886 35.009 73.4155 34.2768 72.6106 34.1778C72.5905 34.1752 70.5837 33.9231 68.9216 33.2C68.1775 32.8764 67.312 33.2174 66.9884 33.9614C66.665 34.7057 67.0058 35.5709 67.7499 35.8946Z" fill="black"/>
<path d="M19.4566 63.8639C24.7982 63.8639 29.1439 59.5182 29.1439 54.1766C29.1439 48.835 24.7982 44.4893 19.4566 44.4893C14.115 44.4893 9.76929 48.835 9.76929 54.1766C9.76929 59.5184 14.115 63.8639 19.4566 63.8639ZM19.4566 60.9258C18.1267 60.9258 16.8865 60.5376 15.8402 59.8708L25.1505 50.5604C25.8173 51.6067 26.2056 52.8467 26.2056 54.1768C26.2056 57.8981 23.1781 60.9258 19.4566 60.9258ZM19.4566 47.4276C20.7865 47.4276 22.0269 47.8159 23.073 48.4827L13.7625 57.7932C13.0957 56.7469 12.7074 55.5067 12.7074 54.1768C12.7074 50.4553 15.7351 47.4276 19.4566 47.4276Z" fill="black"/>
<path d="M27.6375 83.5566C29.2078 81.515 30.0681 79.2717 30.1039 79.1771C30.3914 78.4193 30.0103 77.5726 29.2529 77.2842C28.4957 76.9949 27.6472 77.3761 27.3576 78.1334C27.3502 78.1525 26.6064 80.0781 25.3088 81.765C25.1341 81.9922 24.9373 82.2392 24.7275 82.5025C22.924 84.7662 20.1988 88.1869 21.5732 91.1441C22.4873 93.1107 24.6351 93.5861 26.4994 93.5861C28.039 93.5861 29.3851 93.2615 29.681 93.1849C30.4666 92.9816 30.9384 92.1801 30.7351 91.3947C30.5318 90.6092 29.7298 90.1375 28.9449 90.3406C27.5861 90.692 24.7162 90.9357 24.2375 89.9058C23.6291 88.5967 25.8384 85.8234 27.0254 84.3338C27.2461 84.056 27.4533 83.7957 27.6375 83.5566Z" fill="black"/>
<path d="M33.3285 90.9324C33.4996 90.997 33.675 91.0277 33.8475 91.0277C34.441 91.0277 34.9998 90.6654 35.2221 90.0773C35.8016 88.5433 35.5162 87.4082 35.1748 86.7257C34.4809 85.339 33.0973 84.8142 32.7457 84.7003C31.8371 84.2306 30.5801 84.9525 30.6219 86.0333C30.6219 86.7617 31.1465 87.3707 31.8389 87.4949C31.9762 87.5396 32.4016 87.7375 32.5517 88.05C32.6615 88.2785 32.635 88.6113 32.4734 89.039C32.1867 89.798 32.5695 90.6457 33.3285 90.9324Z" fill="black"/>
</g>
<defs>
<clipPath id="clip0">
<rect width="100" height="100" fill="white"/>
</clipPath>
</defs>
</svg>
