<svg width="100" height="100" viewBox="0 0 100 100" fill="none" xmlns="http://www.w3.org/2000/svg">
<path d="M8.84512 36.5039C11.1781 35.2934 14.0508 36.2033 15.2613 38.5363L18.5713 44.9156V14.5523C18.5713 11.924 20.702 9.79336 23.3303 9.79336C25.9586 9.79336 28.0893 11.924 28.0893 14.5523V6.22383C28.0893 3.59551 30.2199 1.46484 32.8482 1.46484C35.4766 1.46484 37.6072 3.59551 37.6072 6.22383V12.1727C37.6072 9.54434 39.7379 7.41367 42.3662 7.41367C44.9945 7.41367 47.1252 9.54434 47.1252 12.1727V20.6994C47.1252 18.0711 49.2559 15.9404 51.8842 15.9404C54.5125 15.9404 56.6432 18.0711 56.6432 20.6994V98.5352H18.5711V65.5824L6.8127 42.9199C5.60216 40.5869 6.51212 37.7145 8.84512 36.5039Z" fill="#FCD0A3"/>
<path d="M51.8848 15.9404C51.2912 15.9404 50.7232 16.05 50.1992 16.2486C51.9955 16.9293 53.2728 18.6648 53.2728 20.6996V98.5352H56.6439V20.6994C56.6437 18.0711 54.5131 15.9404 51.8848 15.9404Z" fill="#FFB983"/>
<path d="M13.1791 40.6186L16.3246 46.6973C16.8975 47.8043 18.5711 47.3971 18.5711 46.1504V44.8914L15.2612 38.5363C14.0506 36.2033 11.1781 35.2934 8.84495 36.5039C7.92756 36.9799 7.23127 37.7135 6.79651 38.5697C9.12366 37.385 11.9744 38.2967 13.1791 40.6186Z" fill="#FFB983"/>
<path d="M56.6438 98.5352V58.3543C53.8049 58.7815 49.5983 60.2444 47.1256 64.9887C43.1391 72.6375 39.5428 73.6051 35.5676 73.6051C29.0055 73.6051 25.7877 77.433 26.3074 82.8652C26.8117 88.1354 31.7936 90.3244 37.6496 91.125C40.9504 91.5762 44.6905 92.8285 44.6905 96.3289C44.6905 97.0555 44.4653 97.8026 43.9065 98.5354H56.6438V98.5352Z" fill="#F8B0B0"/>
<path d="M53.2729 98.5352H56.644V58.3543C55.6448 58.5047 54.4758 58.7844 53.2729 59.2893V98.5352Z" fill="#FC8086"/>
<path d="M79.2045 42.0219C68.8809 39.3775 58.3684 45.6029 55.724 55.9266C54.719 59.8508 54.9965 63.802 56.2924 67.3383L52.2938 73.6389L59.8438 73.3629C62.327 76.2289 65.677 78.3947 69.6285 79.4068C79.9521 82.0512 90.4646 75.8258 93.109 65.5021C95.7533 55.1789 89.5281 44.6662 79.2045 42.0219Z" fill="#90D8F9"/>
<path d="M74.4166 74.907C82.2549 74.907 88.6092 68.5528 88.6092 60.7144C88.6092 52.8761 82.2549 46.5219 74.4166 46.5219C66.5782 46.5219 60.224 52.8761 60.224 60.7144C60.224 68.5528 66.5782 74.907 74.4166 74.907Z" fill="#FFB983"/>
<path d="M74.8682 57.3773C76.4944 57.3773 77.8127 56.059 77.8127 54.4328C77.8127 52.8066 76.4944 51.4883 74.8682 51.4883C73.242 51.4883 71.9236 52.8066 71.9236 54.4328C71.9236 56.059 73.242 57.3773 74.8682 57.3773Z" fill="#FC8086"/>
<path d="M79.1867 67.3887C80.813 67.3887 82.1313 66.0704 82.1313 64.4442C82.1313 62.818 80.813 61.4996 79.1867 61.4996C77.5605 61.4996 76.2422 62.818 76.2422 64.4442C76.2422 66.0704 77.5605 67.3887 79.1867 67.3887Z" fill="#FC8086"/>
<path d="M68.5865 66.0146C70.2128 66.0146 71.5311 64.6963 71.5311 63.0701C71.5311 61.4439 70.2128 60.1255 68.5865 60.1255C66.9603 60.1255 65.642 61.4439 65.642 63.0701C65.642 64.6963 66.9603 66.0146 68.5865 66.0146Z" fill="#FC8086"/>
<path d="M34.2147 78.4448C33.3473 78.4448 32.6442 79.1479 32.6442 80.0151C32.6442 80.8823 33.3473 81.5854 34.2147 81.5854C35.0821 81.5854 35.785 80.8823 35.785 80.0151C35.785 79.1479 35.0819 78.4448 34.2147 78.4448Z" fill="black"/>
<path d="M48.8193 74.7828C48.8193 73.9154 48.1162 73.2125 47.2488 73.2125C46.3815 73.2125 45.6785 73.9156 45.6785 74.7828C45.6785 75.6502 46.3817 76.3533 47.2488 76.3533C48.116 76.3533 48.8193 75.6502 48.8193 74.7828Z" fill="black"/>
<path d="M41.7371 79.3211C41.7371 80.1885 42.4402 80.8916 43.3074 80.8916C44.1746 80.8916 44.8778 80.1885 44.8778 79.3211C44.8778 78.4537 44.1746 77.7508 43.3074 77.7508C42.4402 77.7508 41.7371 78.4537 41.7371 79.3211Z" fill="black"/>
<path d="M49.8838 84.3381C49.0164 84.3381 48.3135 85.0412 48.3135 85.9086C48.3135 86.776 49.0166 87.4791 49.8838 87.4791C50.7512 87.4791 51.4543 86.776 51.4543 85.9086C51.4543 85.0412 50.751 84.3381 49.8838 84.3381Z" fill="black"/>
<path d="M49.8838 93.2174C49.0164 93.2174 48.3135 93.9205 48.3135 94.7879C48.3135 95.6553 49.0166 96.3582 49.8838 96.3582C50.7512 96.3582 51.4543 95.6551 51.4543 94.7879C51.4541 93.9205 50.751 93.2174 49.8838 93.2174Z" fill="black"/>
<path d="M38.3076 86.3647C38.3076 87.2321 39.0107 87.9352 39.8779 87.9352C40.7453 87.9352 41.4484 87.2321 41.4484 86.3647C41.4484 85.4973 40.7453 84.7944 39.8779 84.7944C39.0107 84.7942 38.3076 85.4973 38.3076 86.3647Z" fill="black"/>
<path d="M56.6436 86.8443C55.8344 86.8443 55.1787 87.5002 55.1787 88.3091V98.5351C55.1787 99.3441 55.8344 100 56.6436 100C57.4527 100 58.1084 99.3441 58.1084 98.5351V88.3091C58.1084 87.5002 57.4527 86.8443 56.6436 86.8443Z" fill="black"/>
<path d="M26.6241 14.5527C26.6241 14.5553 26.6244 14.5578 26.6244 14.5604V45.8828C26.6244 46.6918 27.2801 47.3477 28.0893 47.3477C28.8985 47.3477 29.5541 46.6918 29.5541 45.8828L29.5537 6.22461C29.5537 4.40781 31.0319 2.92969 32.8487 2.92969C34.6655 2.92969 36.1436 4.40781 36.1436 6.22461L36.1426 45.8828C36.1426 46.6918 36.7983 47.3477 37.6074 47.3477C38.4166 47.3477 39.0723 46.6918 39.0723 45.8828V12.1908C39.0723 12.1846 39.0733 12.1783 39.0733 12.1719C39.0733 10.3562 40.5504 8.87891 42.366 8.87891C44.1828 8.87891 45.661 10.3561 45.661 12.1719L45.6608 45.883C45.6608 46.692 46.3164 47.3479 47.1256 47.3479C47.9348 47.3479 48.5905 46.692 48.5905 45.883V20.7029C48.5905 20.7018 48.5907 20.7004 48.5907 20.6992C48.5907 18.8824 50.0678 17.4043 51.8836 17.4043C53.7004 17.4043 55.1785 18.8824 55.1785 20.6992V32.0068C55.1785 32.8158 55.8342 33.4717 56.6434 33.4717C57.4526 33.4717 58.1082 32.8158 58.1082 32.0068V20.6992C58.1082 17.267 55.3158 14.4746 51.8836 14.4746C50.6752 14.4746 49.5463 14.8209 48.5907 15.4195V12.1719C48.5907 8.74082 45.7983 5.94922 42.366 5.94922C41.1576 5.94922 40.0289 6.29531 39.0733 6.89375V6.22461C39.0733 2.79238 36.2809 0 32.8487 0C29.4164 0 26.6241 2.79238 26.6241 6.22461V9.27305C25.6682 8.67441 24.5393 8.32812 23.3311 8.32812C19.8989 8.32812 17.1065 11.1205 17.1065 14.5527V38.9133L16.5616 37.8635C15.7967 36.3869 14.5026 35.2971 12.9172 34.7949C11.3325 34.2928 9.64651 34.4379 8.16976 35.2041C5.12386 36.7859 3.93245 40.5502 5.51331 43.5947L17.1063 65.9395V72.5832C17.1063 73.3922 17.7619 74.048 18.5711 74.048C19.3803 74.048 20.036 73.3922 20.036 72.5832V65.582C20.036 65.3473 19.9795 65.1158 19.8713 64.9074L8.11351 42.2449C7.27659 40.6334 7.90745 38.6412 9.51917 37.8043C10.3006 37.3988 11.1932 37.3221 12.0319 37.5877C12.8705 37.8535 13.5553 38.4301 13.9604 39.2119L17.2707 45.5908C17.5817 46.19 18.2617 46.4994 18.9184 46.3393C19.5742 46.1793 20.036 45.5914 20.036 44.9162V14.5527C20.036 12.7359 21.5141 11.2578 23.3309 11.2578C25.1467 11.2578 26.6241 12.7359 26.6241 14.5527Z" fill="black"/>
<path d="M18.5711 78.0919C17.7619 78.0919 17.1063 78.7478 17.1063 79.5568V98.5351C17.1063 99.3441 17.7619 99.9999 18.5711 99.9999C19.3803 99.9999 20.036 99.3441 20.036 98.5351V79.5568C20.036 78.7476 19.3803 78.0919 18.5711 78.0919Z" fill="black"/>
<path d="M92.2803 50.1361C89.4545 45.3644 84.9401 41.9789 79.568 40.6029C71.3717 38.5041 63.0436 41.623 58.1084 47.8699V38.8576C58.1084 38.0486 57.4528 37.3928 56.6436 37.3928C55.8344 37.3928 55.1787 38.0486 55.1787 38.8576V52.9084C54.833 53.7617 54.5395 54.6471 54.3047 55.5631C54.1408 56.2031 54.0106 56.8475 53.9084 57.4937C51.2324 58.3566 47.952 60.2342 45.827 64.3113C42.0533 71.5515 38.9479 72.1406 35.5674 72.1406C31.9172 72.1406 28.9844 73.2445 27.086 75.3332C25.3278 77.2676 24.5543 79.9203 24.8494 83.0047C25.3539 88.2814 29.5938 91.5017 37.4512 92.5764C41.2828 93.1002 43.2256 94.3625 43.2256 96.3281C43.2256 96.7891 43.0674 97.2205 42.7424 97.6469C42.2518 98.29 42.3756 99.2094 43.019 99.6998C43.2842 99.9021 43.5965 100 43.9061 100C44.3475 100 44.7838 99.8014 45.0721 99.4232C45.7908 98.4807 46.1553 97.4393 46.1553 96.3281C46.1553 93.8103 44.7141 90.6121 37.8481 89.6736C31.4268 88.7955 28.1289 86.5228 27.7658 82.7256C27.5516 80.4853 28.0662 78.6105 29.2541 77.3035C30.5821 75.8424 32.7653 75.0701 35.5674 75.0701C37.5067 75.0701 39.8024 74.8721 42.1252 73.4029C44.4006 71.9637 46.4612 69.4328 48.4248 65.6652C49.6197 63.3728 51.3744 61.7176 53.6514 60.7191C53.6502 62.8931 53.9926 65.059 54.6768 67.1498L51.0569 72.8537C50.7655 73.3131 50.7522 73.8959 51.0231 74.3676C51.2938 74.8392 51.8057 75.1238 52.3469 75.1025L55.1785 74.999V81.4658C55.1785 82.2748 55.8342 82.9307 56.6434 82.9307C57.4526 82.9307 58.1082 82.2748 58.1082 81.4658V74.892L59.2112 74.8517C61.9198 77.7717 65.3813 79.8312 69.2649 80.8258C70.9834 81.2658 72.7237 81.4836 74.4524 81.4836C78.1274 81.4836 81.7494 80.4994 84.9949 78.5779C89.7664 75.7523 93.1522 71.2377 94.5281 65.8656C95.9041 60.4939 95.1059 54.9076 92.2803 50.1361ZM91.6901 65.139C90.5082 69.7529 87.6004 73.6305 83.5022 76.0574C79.4043 78.4842 74.6059 79.1701 69.9922 77.9881C66.4582 77.083 63.3319 75.1519 60.9508 72.4039C60.6721 72.0822 60.2678 71.8982 59.844 71.8982C59.826 71.8982 59.808 71.8984 59.7905 71.8992L55.0223 72.0734L57.5293 68.1232C57.7735 67.7385 57.8248 67.2621 57.668 66.8342C56.4258 63.4449 56.2444 59.7988 57.143 56.29C59.5828 46.7654 69.3182 41.0015 78.841 43.441C83.4551 44.6228 87.3326 47.5305 89.7594 51.6287C92.1861 55.7269 92.8717 60.525 91.6901 65.139Z" fill="black"/>
<path d="M74.4165 45.057C65.7829 45.057 58.759 52.0808 58.759 60.7146C58.759 69.3482 65.7829 76.372 74.4165 76.372C83.05 76.372 90.0741 69.3482 90.0741 60.7146C90.0741 52.0808 83.05 45.057 74.4165 45.057ZM74.4165 73.4422C67.3983 73.4422 61.6887 67.7326 61.6887 60.7144C61.6887 53.6963 67.3983 47.9865 74.4165 47.9865C81.4348 47.9865 87.1444 53.6961 87.1444 60.7144C87.1444 67.7326 81.4348 73.4422 74.4165 73.4422Z" fill="black"/>
<path d="M79.2775 54.4328C79.2775 52.0016 77.2994 50.0234 74.8682 50.0234C72.4369 50.0234 70.459 52.0014 70.459 54.4328C70.459 56.8643 72.4369 58.8422 74.8682 58.8422C77.2994 58.8422 79.2775 56.8643 79.2775 54.4328ZM73.3885 54.4328C73.3885 53.617 74.0521 52.9531 74.868 52.9531C75.684 52.9531 76.3477 53.6168 76.3477 54.4328C76.3477 55.2488 75.684 55.9125 74.868 55.9125C74.0523 55.9125 73.3885 55.2488 73.3885 54.4328Z" fill="black"/>
<path d="M79.1867 60.0348C76.7555 60.0348 74.7773 62.0127 74.7773 64.4442C74.7773 66.8756 76.7555 68.8535 79.1867 68.8535C81.618 68.8535 83.5961 66.8756 83.5961 64.4442C83.5961 62.0129 81.618 60.0348 79.1867 60.0348ZM79.1867 65.9239C78.3707 65.9239 77.707 65.2602 77.707 64.4442C77.707 63.6284 78.3707 62.9645 79.1867 62.9645C80.0027 62.9645 80.6664 63.6282 80.6664 64.4442C80.6664 65.2602 80.0027 65.9239 79.1867 65.9239Z" fill="black"/>
<path d="M68.5867 58.6607C66.1555 58.6607 64.1774 60.6386 64.1774 63.0701C64.1774 65.5013 66.1555 67.4795 68.5867 67.4795C71.018 67.4795 72.9959 65.5015 72.9959 63.0701C72.9959 60.6386 71.018 58.6607 68.5867 58.6607ZM68.5867 64.5498C67.7707 64.5498 67.1071 63.8861 67.1071 63.0701C67.1071 62.2541 67.7707 61.5904 68.5867 61.5904C69.4026 61.5904 70.0662 62.2541 70.0662 63.0701C70.0662 63.8859 69.4024 64.5498 68.5867 64.5498Z" fill="black"/>
</svg>
