<svg width="100" height="100" viewBox="0 0 100 100" fill="none" xmlns="http://www.w3.org/2000/svg">
<g clip-path="url(#clip0)">
<path d="M93.3784 47.1872C93.0143 46.781 92.6177 46.3476 92.22 45.9138L85.5685 46.0747L88.1359 41.6751C79.7436 33.4272 66.5882 23.6329 49.9999 23.6329C33.4116 23.6329 20.2563 33.4276 11.8636 41.6755L11.5016 46.0747L7.77942 45.9142C7.38177 46.3479 6.98548 46.781 6.62142 47.1874C5.85971 48.0077 2.87146 51.4063 2.87146 51.4649C2.87146 51.5235 5.85971 54.9217 6.62142 55.742C8.33977 57.6588 10.4538 59.9148 12.903 62.2511L17.0336 60.5466L17.285 66.1546C25.4496 72.9377 36.6379 79.2966 49.9997 79.2966C63.3615 79.2966 74.5499 72.9377 82.7144 66.1546L82.9658 60.5466L87.0964 62.2511C89.5458 59.9148 91.6597 57.6588 93.378 55.742C94.1397 54.9217 97.128 51.5235 97.128 51.4649C97.128 51.4063 94.1403 48.0077 93.3784 47.1872Z" fill="#FDCCBD"/>
<path d="M82.9662 60.5466L87.0968 62.2511C89.5462 59.9148 91.66 57.6588 93.3784 55.742C94.1401 54.9217 97.1283 51.5235 97.1283 51.4649C97.1283 51.4063 94.1401 48.0077 93.3784 47.1874C93.0143 46.7811 92.6176 46.3477 92.22 45.914L85.5685 46.0749L88.1358 41.6753C79.7435 33.4274 66.5882 23.6331 49.9999 23.6331V79.2966C63.3619 79.2966 74.55 72.9377 82.7146 66.1546L82.9662 60.5466Z" fill="#FBB5AE"/>
<path d="M50 67.5779C61.4339 67.5779 70.703 58.3963 70.703 47.0702C70.703 35.7442 61.4339 26.5626 50 26.5626C38.5661 26.5626 29.2971 35.7442 29.2971 47.0702C29.2971 58.3963 38.5661 67.5779 50 67.5779Z" fill="#EC577D"/>
<path d="M70.7029 47.0702C70.7029 35.7635 61.3067 26.5626 50 26.5626V67.5779C61.3065 67.578 70.7029 58.377 70.7029 47.0702Z" fill="#E72D5C"/>
<path d="M17.5784 52.9298C18.3309 52.9298 19.0803 52.6409 19.6497 52.0714L25.5091 46.212C26.6534 45.0677 26.6534 43.2136 25.5091 42.0692C24.3647 40.9249 22.5106 40.9249 21.3663 42.0692L17.3608 46.0747L11.8634 41.6755C10.3485 43.1644 8.9905 44.5931 7.77917 45.9142L15.7469 52.289C16.2852 52.7181 16.9319 52.9298 17.5784 52.9298Z" fill="#FBB5AE"/>
<path d="M26.3675 61.7187C27.9868 61.7187 29.2971 60.4084 29.2971 58.7891C29.2971 57.1697 27.9868 55.8594 26.3675 55.8594H20.5081C19.73 55.8594 18.986 56.1684 18.4368 56.7178L12.9032 62.2514C14.2569 63.5428 15.7184 64.8527 17.2852 66.1549L21.7212 61.7189H26.3675V61.7187Z" fill="#FBB5AE"/>
<path d="M88.1361 41.6751L82.6391 46.0747L78.6336 42.0692C77.4893 40.9249 75.6352 40.9249 74.4908 42.0692C73.3465 43.2136 73.3465 45.0677 74.4908 46.212L80.3502 52.0714C80.9195 52.6407 81.6691 52.9298 82.4215 52.9298C83.0682 52.9298 83.7146 52.7181 84.2523 52.289L92.2201 45.914C91.009 44.5927 89.6513 43.164 88.1361 41.6751Z" fill="#F89580"/>
<path d="M79.4919 55.8594H73.6326C72.0132 55.8594 70.7029 57.1697 70.7029 58.7891C70.7029 60.4084 72.0132 61.7187 73.6326 61.7187H78.2789L82.7148 66.1547C84.2816 64.8525 85.7431 63.5426 87.0968 62.2512L81.5632 56.7176C81.0138 56.1684 80.2701 55.8594 79.4919 55.8594Z" fill="#F89580"/>
<path d="M50.0001 55.8594C54.8542 55.8594 58.7892 51.9244 58.7892 47.0703C58.7892 42.2162 54.8542 38.2812 50.0001 38.2812C45.1461 38.2812 41.2111 42.2162 41.2111 47.0703C41.2111 51.9244 45.1461 55.8594 50.0001 55.8594Z" fill="#58072A"/>
<path d="M58.7891 47.0703C58.7891 42.2238 54.8465 38.2812 50 38.2812V55.8594C54.8465 55.8596 58.7891 51.917 58.7891 47.0703Z" fill="#351B33"/>
<path d="M99.5815 51.4219C98.829 50.1688 80.6038 20.7035 49.9998 20.7035C19.3958 20.7035 1.17039 50.1688 0.417854 51.4219C-0.414755 52.8094 0.0344595 54.609 1.42214 55.4416C2.80611 56.2721 4.60785 55.8272 5.44183 54.4373C5.61058 54.1569 22.6772 26.5626 49.9998 26.5626C77.248 26.5626 94.3917 54.1598 94.5578 54.4401C95.3818 55.8022 97.1646 56.2862 98.5774 55.4385C99.9649 54.6061 100.414 52.8094 99.5815 51.4219Z" fill="#6D1D40"/>
<path d="M94.5578 54.4403C95.3818 55.8024 97.1646 56.2863 98.5775 55.4387C99.9649 54.6061 100.414 52.8094 99.5817 51.4219C98.8292 50.1688 80.604 20.7035 50 20.7035V26.5628C77.248 26.5626 94.392 54.1598 94.5578 54.4403Z" fill="#58072A"/>
</g>
<defs>
<clipPath id="clip0">
<rect width="100" height="100" fill="white"/>
</clipPath>
</defs>
</svg>
