<svg width="100" height="100" viewBox="0 0 100 100" fill="none" xmlns="http://www.w3.org/2000/svg">
<g clip-path="url(#clip0)">
<path d="M57.8125 17.1875H18.75V37.2201L13.6719 43.75L18.75 46.875V53.9063C18.75 55.3567 19.3262 56.7477 20.3518 57.7732C21.3773 58.7988 22.7683 59.375 24.2188 59.375H35.9375V68.75C34.5469 70.2137 33.2673 71.7791 32.1094 73.433C50.2414 73.2461 57.8125 67.1875 57.8125 67.1875V17.1875Z" fill="#FFDFC5"/>
<path d="M57.8125 40.0235C53.1565 49.2213 45.4127 56.4876 35.9375 60.5496V68.75C34.5469 70.2138 33.2673 71.7791 32.1094 73.433C50.2414 73.2461 57.8125 67.1875 57.8125 67.1875V40.0235Z" fill="#FFD5C7"/>
<path d="M10.9765 5.97012C10.9765 5.97012 9.41404 27.8451 26.0742 28.125H40.625C43.3158 27.8451 45.3125 29.4076 45.3125 32.1203C45.3125 40.3451 45.332 52.8451 57.8125 57.5326C77.4773 32.4688 74.1535 7.78164 62.283 7.34883C56.25 -6.52988 29.1029 8.91739 16.9867 8.91739C12.4429 8.91739 10.9765 5.97012 10.9765 5.97012Z" fill="#68676B"/>
<path d="M57.8125 57.5326C77.4773 32.4687 74.1535 7.78163 62.283 7.34882C62.2576 7.29023 62.2287 7.23671 62.2027 7.17929C59.3286 16.7501 53.3173 25.0753 45.1367 30.8146C45.2558 31.2396 45.315 31.679 45.3125 32.1203C45.3125 40.3451 45.332 52.8451 57.8125 57.5326Z" fill="#58575B"/>
<path d="M60.4213 46.875H71.4699L79.518 34.375L68.5804 23.4375L64.8408 37.5H54.897L48.2679 59.375L60.4213 46.875Z" fill="#F27C6D"/>
<path d="M57.8125 67.1875C57.8125 67.1875 50.2414 73.2461 32.1094 73.433C28.4348 78.5775 23.4375 87.5695 23.4375 98.4375V100H68.75V98.4375C68.75 87.5 67.1875 79.6875 57.8125 67.1875Z" fill="#96E0D7"/>
<path d="M64.1838 77.1377C55.6199 88.4765 38.3478 95.3781 23.5742 95.3283C23.4857 96.3461 23.4375 97.3826 23.4375 98.4375V100H68.75V98.4375C68.75 90.6955 67.9662 84.5189 64.1838 77.1377Z" fill="#97D0DD"/>
<path d="M46.875 45.0326C51.1896 45.0326 53.125 41.5349 53.125 37.2201C53.125 29.4076 45.3125 29.4076 45.3125 35.6576H40.625V45.0326H46.875Z" fill="#FFDFC5"/>
<path d="M50 76.5625C47.5136 76.5625 45.129 77.5502 43.3709 79.3084C41.6127 81.0665 40.625 83.4511 40.625 85.9375V100H59.375V85.9375C59.375 83.4511 58.3873 81.0665 56.6291 79.3084C54.871 77.5502 52.4864 76.5625 50 76.5625Z" fill="#AFEFDE"/>
<path d="M40.625 15.625C43.2138 15.625 45.3125 13.5263 45.3125 10.9375C45.3125 8.34867 43.2138 6.25 40.625 6.25C38.0362 6.25 35.9375 8.34867 35.9375 10.9375C35.9375 13.5263 38.0362 15.625 40.625 15.625Z" fill="#8A8A8C"/>
<path d="M33.5938 21.875C34.8882 21.875 35.9375 20.8257 35.9375 19.5312C35.9375 18.2368 34.8882 17.1875 33.5938 17.1875C32.2993 17.1875 31.25 18.2368 31.25 19.5312C31.25 20.8257 32.2993 21.875 33.5938 21.875Z" fill="#8A8A8C"/>
<path d="M48.4375 85.9375C50.1634 85.9375 51.5625 84.5384 51.5625 82.8125C51.5625 81.0866 50.1634 79.6875 48.4375 79.6875C46.7116 79.6875 45.3125 81.0866 45.3125 82.8125C45.3125 84.5384 46.7116 85.9375 48.4375 85.9375Z" fill="#D5F7ED"/>
<path d="M53.125 89.0625C53.9879 89.0625 54.6875 88.3629 54.6875 87.5C54.6875 86.6371 53.9879 85.9375 53.125 85.9375C52.2621 85.9375 51.5625 86.6371 51.5625 87.5C51.5625 88.3629 52.2621 89.0625 53.125 89.0625Z" fill="#D5F7ED"/>
<path d="M70.3125 35.9375C72.0384 35.9375 73.4375 34.5384 73.4375 32.8125C73.4375 31.0866 72.0384 29.6875 70.3125 29.6875C68.5866 29.6875 67.1875 31.0866 67.1875 32.8125C67.1875 34.5384 68.5866 35.9375 70.3125 35.9375Z" fill="#FFA596"/>
<path d="M67.1875 40.625C68.0504 40.625 68.75 39.9254 68.75 39.0625C68.75 38.1996 68.0504 37.5 67.1875 37.5C66.3246 37.5 65.625 38.1996 65.625 39.0625C65.625 39.9254 66.3246 40.625 67.1875 40.625Z" fill="#FFA596"/>
<path d="M37.5625 5.67284C49.4937 2.34374 58.0199 1.46132 60.8502 7.97245C60.9676 8.24276 61.1592 8.47433 61.4026 8.64043C61.6461 8.80652 61.9316 8.90036 62.2261 8.91112C65.9546 9.04784 68.7228 12.1787 69.8212 17.5031C70.2386 19.5264 73.2998 18.8978 72.8818 16.8719C71.5763 10.5437 68.0322 6.50741 63.3037 5.87011C58.673 -2.8379 46.2334 0.0107348 36.7226 2.66288C36.5238 2.71695 36.3376 2.80982 36.1748 2.93614C36.012 3.06245 35.8758 3.21972 35.774 3.39888C35.6722 3.57805 35.6069 3.77558 35.5818 3.9801C35.5567 4.18462 35.5722 4.39208 35.6276 4.59056C35.683 4.78903 35.7771 4.97459 35.9045 5.13656C36.0319 5.29852 36.19 5.43369 36.3698 5.53428C36.5497 5.63488 36.7476 5.69891 36.9523 5.72269C37.157 5.74647 37.3643 5.72953 37.5625 5.67284Z" fill="black"/>
<path d="M49.9999 75C47.1002 75.0033 44.3201 76.1567 42.2696 78.2072C40.2192 80.2576 39.0657 83.0377 39.0624 85.9375V98.4375C39.0624 100.503 42.1874 100.506 42.1874 98.4375V85.9375C42.1874 83.8655 43.0105 81.8784 44.4757 80.4132C45.9408 78.9481 47.9279 78.125 49.9999 78.125C52.0719 78.125 54.0591 78.9481 55.5242 80.4132C56.9893 81.8784 57.8124 83.8655 57.8124 85.9375V98.4375C57.8124 100.503 60.9374 100.506 60.9374 98.4375V85.9375C60.9341 83.0377 59.7807 80.2576 57.7303 78.2072C55.6798 76.1567 52.8997 75.0033 49.9999 75Z" fill="black"/>
<path d="M35.3621 71.7679C38.4023 68.0554 37.3047 71.4759 37.5 59.375C37.5 58.9606 37.3353 58.5631 37.0423 58.2701C36.7493 57.9771 36.3519 57.8125 35.9375 57.8125H24.2187C23.1831 57.8113 22.1902 57.3993 21.4579 56.667C20.7256 55.9347 20.3137 54.9419 20.3125 53.9062C20.0873 47.4461 20.85 46.3328 19.5689 45.5443L15.9765 43.333C19.8855 38.1365 20.3134 38.1572 20.3134 37.2197V28.6398C24.8851 30.3802 27.6683 29.4256 45.3134 29.6875C47.3791 29.6875 47.3822 26.5625 45.3134 26.5625H26.0877C16.8076 26.4 13.1271 18.676 12.5677 9.47849C16.181 11.3535 21.1197 10.2273 25.532 9.09763C27.5353 8.58474 26.7597 5.55837 24.757 6.07029C10.2716 9.7783 13.7558 3.85427 10.6882 4.40877C10.346 4.47612 10.0356 4.65501 9.80583 4.91747C9.57602 5.17994 9.43968 5.51116 9.41813 5.85935C8.90934 12.9799 10.9584 22.5586 17.1875 26.9791V36.6842C10.4816 45.7092 10.2343 43.1588 17.1875 47.748V53.9062C17.1895 55.7704 17.931 57.5576 19.2492 58.8758C20.5673 60.1939 22.3545 60.9354 24.2187 60.9375H34.375V68.1259C27.3756 75.7019 21.875 87.184 21.875 98.4384C21.875 100.504 25 100.507 25 98.4384C25 88.4654 29.4582 80.0468 32.9492 74.9832C46.8164 74.7027 54.53 71.0523 57.4383 69.3115C72.3828 89.8404 64.1949 100 68.75 100C69.1644 100 69.5618 99.8354 69.8548 99.5423C70.1479 99.2493 70.3125 98.8519 70.3125 98.4375C70.3125 87.0381 68.5726 78.93 59.0625 66.25C56.9603 63.4461 55.4812 70.7086 35.3621 71.7679Z" fill="black"/>
<path d="M60.6033 23.0359L58.8344 29.6875C51.4765 30.0234 49.349 28.8707 48.765 30.7968L43.5564 47.9843C42.9574 49.9611 45.9472 50.8705 46.5472 48.8906L51.4197 32.8125H60.0357C60.3802 32.8125 60.715 32.6986 60.988 32.4887C61.2611 32.2787 61.4572 31.9844 61.5457 31.6515L63.6232 23.839C63.6779 23.6401 63.6927 23.4323 63.6666 23.2277C63.6406 23.0231 63.5743 22.8256 63.4716 22.6467C63.3689 22.4678 63.2317 22.311 63.0681 22.1854C62.9045 22.0598 62.7176 21.9678 62.5182 21.9148C62.3188 21.8618 62.111 21.8488 61.9065 21.8765C61.7021 21.9042 61.5052 21.9722 61.3272 22.0764C61.1492 22.1806 60.9935 22.3191 60.8693 22.4838C60.7451 22.6485 60.6546 22.8361 60.6033 23.0359Z" fill="black"/>
<path d="M76.2695 48.0816L74.0271 51.5625C62.8601 51.7242 62.7541 51.199 61.9406 52.0357L55.8644 58.2857C54.4238 59.7678 56.6793 61.9309 58.1051 60.4643L63.7211 54.6875C74.6439 54.4455 75.3791 55.2344 76.1929 53.9711L78.8961 49.7736C80.0144 48.0369 77.389 46.3426 76.2695 48.0816Z" fill="black"/>
<path d="M87.7197 30.2945L83.0322 37.5781C81.9141 39.3164 84.5404 41.009 85.6599 39.2695L90.3474 31.9859C91.4648 30.2486 88.839 28.5547 87.7197 30.2945Z" fill="black"/>
<path d="M67.0703 23.0359L63.6394 35.9375H54.897C52.6955 35.9375 53.5388 38.0078 46.772 58.9218C46.2986 60.4843 48.2513 61.6332 49.3877 60.4648L61.0814 48.4375C71.2064 48.198 71.9728 48.9801 72.7838 47.7209L80.8318 35.2209C81.025 34.9207 81.1097 34.5635 81.0717 34.2086C81.0336 33.8537 80.8752 33.5225 80.6228 33.2701L69.6853 22.3326C69.4911 22.1387 69.2492 21.9994 68.9841 21.9286C68.7189 21.8578 68.4398 21.8581 68.1748 21.9294C67.9098 22.0007 67.6682 22.1404 67.4743 22.3347C67.2804 22.5289 67.1411 22.7708 67.0703 23.0359ZM70.6177 45.3125C60.3027 45.4722 60.1125 44.9513 59.3011 45.7857L51.6269 53.6789L56.0562 39.0625H64.8408C65.1852 39.0625 65.52 38.9486 65.7931 38.7387C66.0662 38.5287 66.2622 38.2344 66.3508 37.9015L69.3935 26.4601L77.522 34.5886L70.6177 45.3125Z" fill="black"/>
<path d="M81.0804 42.1875C79.0146 42.1875 79.0117 45.3125 81.0804 45.3125C83.1492 45.3125 83.1492 42.1875 81.0804 42.1875Z" fill="black"/>
<path d="M64.0648 18.75C66.1306 18.75 66.1335 15.625 64.0648 15.625C61.9961 15.625 61.9961 18.75 64.0648 18.75Z" fill="black"/>
<path d="M32.8124 6.24999C32.8124 4.18417 29.6874 4.18124 29.6874 6.24999C29.6874 7.11288 32.8124 8.31874 32.8124 6.24999Z" fill="black"/>
<path d="M41.715 56.948C38.8244 61.3001 42.008 67.09 47.1574 67.09C48.2348 67.0939 49.2963 66.8299 50.2465 66.3219C51.1967 65.8139 52.0057 65.0778 52.6009 64.1796C53.7439 62.4587 51.1427 60.7275 49.9978 62.4507C49.7519 62.8228 49.4345 63.1424 49.064 63.3908C48.6936 63.6391 48.2774 63.8114 47.8398 63.8976C44.8543 64.4957 42.6603 61.1738 44.3181 58.6779C45.4609 56.9562 42.8599 55.2246 41.715 56.948Z" fill="black"/>
</g>
<defs>
<clipPath id="clip0">
<rect width="100" height="100" fill="white"/>
</clipPath>
</defs>
</svg>
