<svg width="100" height="100" viewBox="0 0 100 100" fill="none" xmlns="http://www.w3.org/2000/svg">
<g clip-path="url(#clip0)">
<path d="M98.4375 98.4375C98.4375 82.2265 91.383 71.6721 78.9486 62.2101C78.9486 62.2101 68.1334 72.9914 56.4562 76.7055C55.2562 82.018 53.924 89.8488 53.924 98.4375V100H98.4375V98.4375Z" fill="#96E0D7"/>
<path d="M57.8125 100V98.4375C60.9375 95.3125 60.9375 94.1336 60.9375 89.0625V84.7656C60.9375 80.0781 54.6875 80.0781 54.6875 84.7656V90.3248L51.5625 82.8125L53.5506 74.86C53.6855 74.3204 53.6956 73.7572 53.5803 73.2131C53.4649 72.669 53.227 72.1584 52.8847 71.72C52.5425 71.2816 52.1048 70.927 51.6049 70.6831C51.1051 70.4392 50.5562 70.3125 50 70.3125L45.3125 82.8125L48.4375 98.4375V100H57.8125Z" fill="#FFDFC5"/>
<path d="M88.5547 71.0492C87.5118 77.3816 84.8955 83.3508 80.9457 88.4091C76.996 93.4674 71.8393 97.4529 65.9486 100H98.4375V98.4375C98.4375 87.0402 94.9461 78.4406 88.5547 71.0492Z" fill="#97D0DD"/>
<path d="M76.7369 54.426C63.4512 53.3277 60.0154 41.3086 57.7674 33.3984C57.0252 30.789 54.6783 29.8318 52.1664 30.8363L38.1693 34.8133C35.2773 35.5828 32.7621 35.5181 30.5787 34.8998L30.6209 35.0428L33.6102 45.5638L30.51 53.233L36.2488 54.851L38.1705 61.6146C38.5669 63.0098 39.5013 64.1903 40.7681 64.8965C42.035 65.6027 43.5304 65.7768 44.9256 65.3804L56.1982 62.1773L58.3334 69.6924C58.3334 69.6924 57.4393 72.3541 56.4563 76.706C68.1334 72.9927 78.9486 62.2107 78.9486 62.2107L76.7369 54.426Z" fill="#FFDFC5"/>
<path d="M30.5787 34.8988C32.7621 35.5172 35.2773 35.5824 38.1693 34.8123L52.1664 30.8353C54.6783 29.8308 57.0262 30.7881 57.7674 33.3974C60.0154 41.3092 63.451 53.3277 76.7369 54.426C88.8027 24.9414 78.8584 2.1029 67.3217 4.93103C57.7252 -6.77054 35.8336 15.5078 24.1785 18.8195C19.808 20.0613 17.5918 17.6281 17.5918 17.6281C17.5918 17.6281 20.6055 32.0736 30.5787 34.8988Z" fill="#68676B"/>
<path d="M76.8121 8.91852C74.0864 19.5121 67.3594 28.6362 58.0455 34.3724C60.3082 42.2595 63.9859 53.3718 76.7369 54.4259C85.1416 33.8884 82.8654 16.5787 76.8121 8.91852Z" fill="#58575B"/>
<path d="M87.448 84.2968C87.4429 83.0657 87.1954 81.8476 86.7195 80.7121C86.2436 79.5767 85.5487 78.546 84.6746 77.6791C83.8004 76.8122 82.764 76.126 81.6246 75.6596C80.4852 75.1932 79.2651 74.9558 78.034 74.9609C76.8028 74.966 75.5848 75.2136 74.4493 75.6895C73.3138 76.1653 72.2832 76.8602 71.4163 77.7344C70.5494 78.6086 69.8631 79.6449 69.3967 80.7843C68.9303 81.9237 68.6929 83.1438 68.698 84.375L68.75 100L87.5 99.9218L87.448 84.2968Z" fill="#AFEFDE"/>
<path d="M66.6764 36.1679C64.5412 28.6529 57.0262 30.788 58.7342 36.8001L53.125 39.0624L57.8125 46.8749L62.7994 45.3906C66.95 44.2118 67.8557 40.3183 66.6764 36.1679Z" fill="#FFDFC5"/>
<path d="M60.9375 14.0624C63.5263 14.0624 65.625 11.9638 65.625 9.37494C65.625 6.7861 63.5263 4.68744 60.9375 4.68744C58.3487 4.68744 56.25 6.7861 56.25 9.37494C56.25 11.9638 58.3487 14.0624 60.9375 14.0624Z" fill="#8A8A8C"/>
<path d="M53.9062 20.3124C55.2007 20.3124 56.25 19.2631 56.25 17.9687C56.25 16.6743 55.2007 15.6249 53.9062 15.6249C52.6118 15.6249 51.5625 16.6743 51.5625 17.9687C51.5625 19.2631 52.6118 20.3124 53.9062 20.3124Z" fill="#8A8A8C"/>
<path d="M76.5625 85.9375C78.2884 85.9375 79.6875 84.5384 79.6875 82.8125C79.6875 81.0866 78.2884 79.6875 76.5625 79.6875C74.8366 79.6875 73.4375 81.0866 73.4375 82.8125C73.4375 84.5384 74.8366 85.9375 76.5625 85.9375Z" fill="#D5F7ED"/>
<path d="M81.25 89.0625C82.1129 89.0625 82.8125 88.3629 82.8125 87.5C82.8125 86.6371 82.1129 85.9375 81.25 85.9375C80.3871 85.9375 79.6875 86.6371 79.6875 87.5C79.6875 88.3629 80.3871 89.0625 81.25 89.0625Z" fill="#D5F7ED"/>
<path d="M48.2125 97.3125L48.4375 98.4375V100H57.8125V98.4375C60.3553 95.8947 60.8289 94.6402 60.918 91.5291C61.0008 87.1875 60.918 86.4357 60.7812 85.6968C59.6109 88.4017 57.8883 90.8321 55.7239 92.8324C53.5595 94.8327 51.001 96.3586 48.2125 97.3125Z" fill="#FFD5C7"/>
<path d="M80.31 61.2846L78.3857 54.5117C82.2889 44.7984 84.1391 35.0328 83.7373 26.2367C83.3723 18.2648 81.1857 11.5707 77.5803 7.38769C74.8107 4.17441 71.4063 2.72128 67.9014 3.22753C64.2506 -0.585943 58.9783 -1.01563 51.8209 1.91113C49.909 2.69238 51.0887 5.58691 53.0033 4.80371C59.2326 2.25703 63.3986 2.61249 66.1143 5.92265C66.3011 6.15063 66.5486 6.32113 66.8282 6.41444C67.1078 6.50775 67.408 6.52008 67.6943 6.44999C77.4854 4.0498 86.5983 25.0617 75.7275 52.7441C67.2098 51.5623 66.6047 46.1035 64.4082 48.2873C64.1144 48.5795 63.9486 48.9764 63.9474 49.3907C63.9462 49.8051 64.1096 50.203 64.4018 50.4969C67.3787 53.4914 71.1162 55.2926 75.5215 55.8656L77.1883 61.7322C74.9475 63.8285 67.2805 70.6465 58.774 74.1902C56.8836 74.9779 58.0514 77.8768 59.976 77.075C68.7285 73.4287 76.3842 66.7527 79.0549 64.2697C103.441 83.4607 93.3811 100 98.4375 100C98.8519 100 99.2493 99.8354 99.5424 99.5424C99.8354 99.2493 100 98.8519 100 98.4375C100 82.0646 93.0227 71.0809 80.31 61.2846Z" fill="black"/>
<path d="M60.5187 29.9819C55.6127 31.3758 56.1467 39.1596 59.1613 38.3022C59.3587 38.2461 59.5431 38.1517 59.704 38.0243C59.8649 37.897 59.9991 37.7392 60.099 37.56C60.199 37.3808 60.2626 37.1836 60.2863 36.9798C60.31 36.776 60.2934 36.5695 60.2373 36.3721C59.0766 32.2867 63.6348 31.1783 65.1734 36.5942C66.1058 39.8766 65.6435 42.9578 62.3725 43.8873C60.3836 44.4524 61.2377 47.4578 63.2266 46.8932C73.1592 44.0723 68.0904 27.8299 60.5187 29.9819Z" fill="black"/>
<path d="M55.1223 64.1068L56.8305 70.1187C57.3969 72.1109 60.3998 71.2471 59.8365 69.2646L57.7012 61.7496C57.6451 61.5522 57.5507 61.3678 57.4233 61.2069C57.296 61.046 57.1382 60.9118 56.959 60.8119C56.7798 60.712 56.5826 60.6483 56.3788 60.6246C56.175 60.6009 55.9685 60.6175 55.7711 60.6736C45.0852 63.3713 43.9156 64.8613 41.5289 63.5309C41.08 63.2823 40.6849 62.9471 40.3664 62.5448C40.048 62.1425 39.8124 61.681 39.6734 61.1871C37.6912 55.0348 38.1207 53.7551 36.6729 53.3469L32.6119 52.2018C34.9525 46.1332 35.3689 46.0367 35.1131 45.1363L32.7693 36.8848C37.5189 37.2984 40.2756 35.5939 52.5936 32.3394C54.584 31.774 53.7264 28.7687 51.7395 29.3336L37.7559 33.3059C28.7781 35.6865 23.1291 29.2512 20.0801 20.5662C25.5588 21.6896 32.1504 16.8287 42.2271 10.6006C43.9861 9.51347 42.342 6.85585 40.5838 7.94257C30.8051 13.9867 22.3889 20.1537 18.7383 16.5656C17.7215 15.3879 15.7227 16.3211 16.0613 17.9457C17.525 24.9672 22.1231 33.593 29.307 36.1375L31.9598 45.4734C27.9791 55.9791 27.0379 53.6012 34.9836 56.1162C36.5502 60.3902 36.1887 64.1312 40.0064 66.2596C44.0395 68.5086 47.0703 65.9402 55.1223 64.1068Z" fill="black"/>
<path d="M78.0273 73.3984C76.5909 73.4036 75.1695 73.6919 73.8445 74.2468C72.5195 74.8017 71.3169 75.6122 70.3053 76.6322C69.2938 77.6521 68.4932 78.8614 67.9493 80.191C67.4054 81.5205 67.1289 82.9442 67.1356 84.3807L67.1875 98.4432C67.1891 98.8565 67.3544 99.2525 67.6472 99.5442C67.9401 99.836 68.3366 99.9998 68.75 99.9998C68.7695 99.991 70.3182 99.9307 70.3125 98.4314C70.8008 86.5137 68.8398 82.5512 72.5258 78.8348C77.4037 73.9158 85.8565 77.367 85.8852 84.3035L85.9371 98.366C85.9386 98.7794 86.1039 99.1754 86.3968 99.4672C86.6896 99.759 87.0862 99.9228 87.4996 99.9228C87.5191 99.9141 89.0676 99.8537 89.0621 98.3545L89.0102 84.292C88.995 81.392 87.8301 78.6165 85.7712 76.5743C83.7122 74.5321 80.9273 73.39 78.0273 73.3984Z" fill="black"/>
<path d="M53.3576 83.0599L53.2037 82.6898L55.0664 75.239C56.3961 69.9197 49.5455 67.075 48.5369 69.7638C43.6432 83.0504 43.624 82.3369 43.7803 83.1189L46.9053 98.7439C47.3107 100.771 50.3752 100.159 49.9697 98.131L46.932 82.9433L50.9902 72.1219C51.4023 72.3425 51.7289 72.6944 51.9182 73.1218C52.1074 73.5493 52.1484 74.0276 52.0348 74.481C50.1012 82.639 49.7713 82.575 50.1207 83.4127L53.2457 90.925C53.8982 92.4935 56.2508 92.0279 56.2508 90.3248V84.7656C56.2508 83.3256 57.0578 82.8125 57.8133 82.8125C60.2455 82.8125 59.0686 86.6832 59.3758 89.0625C59.3758 94.0273 59.3758 94.6654 56.7084 97.3326C55.2477 98.7931 57.4553 101.004 58.9182 99.5423C63.0221 95.4377 62.5 93.8935 62.5 84.7656C62.5 78.6804 54.833 78.0197 53.3576 83.0599Z" fill="black"/>
<path d="M40.625 51.5625C42.6908 51.5625 42.6938 48.4375 40.625 48.4375C38.5592 48.4375 38.5563 51.5625 40.625 51.5625Z" fill="black"/>
<path d="M0 64.0625C0 66.1283 3.125 66.1312 3.125 64.0625C3.125 63.1996 0 61.9937 0 64.0625Z" fill="black"/>
<path d="M9.375 64.0625C9.375 61.9967 6.25 61.9937 6.25 64.0625C6.25 66.1312 9.375 66.1312 9.375 64.0625Z" fill="black"/>
<path d="M14.0625 65.625C16.1283 65.625 16.1312 62.5 14.0625 62.5C13.1996 62.5 11.9938 65.625 14.0625 65.625Z" fill="black"/>
<path d="M31.25 70.3125C31.25 72.3783 34.375 72.3812 34.375 70.3125C34.375 68.2437 31.25 68.2437 31.25 70.3125Z" fill="black"/>
<path d="M45.3125 50C45.3125 52.0658 48.4375 52.0687 48.4375 50C48.4375 47.9312 45.3125 47.9312 45.3125 50Z" fill="black"/>
<path d="M67.1875 64.0625C67.1875 61.9967 64.0625 61.9937 64.0625 64.0625C64.0625 66.1312 67.1875 66.1312 67.1875 64.0625Z" fill="black"/>
<path d="M60.9375 59.375C60.9375 61.4408 64.0625 61.4437 64.0625 59.375C64.0625 57.3062 60.9375 57.3062 60.9375 59.375Z" fill="black"/>
<path d="M57.8125 56.25C59.8783 56.25 59.8812 53.125 57.8125 53.125C55.7437 53.125 55.7437 56.25 57.8125 56.25Z" fill="black"/>
<path d="M53.125 53.125C55.1908 53.125 55.1937 50 53.125 50C51.0563 50 51.0563 53.125 53.125 53.125Z" fill="black"/>
<path d="M46.875 7.8125C48.9408 7.8125 48.9438 4.6875 46.875 4.6875C44.8092 4.6875 44.8063 7.8125 46.875 7.8125Z" fill="black"/>
<path d="M12.5 59.375H26.5625C28.6281 59.375 28.6313 56.25 26.5625 56.25H12.5C11.8819 56.25 11.2777 56.0667 10.7638 55.7233C10.2499 55.38 9.8494 54.8919 9.61288 54.3209C9.37635 53.7499 9.31447 53.1215 9.43505 52.5153C9.55562 51.9091 9.85325 51.3523 10.2903 50.9153C10.7273 50.4782 11.2842 50.1806 11.8903 50.06C12.4965 49.9395 13.1249 50.0014 13.6959 50.2379C14.2669 50.4744 14.755 50.8749 15.0983 51.3888C15.4417 51.9027 15.625 52.5069 15.625 53.125C15.625 53.5394 15.7896 53.9368 16.0826 54.2299C16.3757 54.5229 16.7731 54.6875 17.1875 54.6875C20.4701 54.6875 18.457 46.875 12.5 46.875C10.8424 46.875 9.25268 47.5335 8.08058 48.7056C6.90848 49.8777 6.25 51.4674 6.25 53.125C6.25 54.7826 6.90848 56.3723 8.08058 57.5444C9.25268 58.7165 10.8424 59.375 12.5 59.375Z" fill="black"/>
<path d="M26.5625 68.75H12.5C10.8424 68.75 9.25268 69.4085 8.08058 70.5806C6.90848 71.7527 6.25 73.3424 6.25 75C6.25 76.6576 6.90848 78.2473 8.08058 79.4194C9.25268 80.5915 10.8424 81.25 12.5 81.25C18.46 81.25 20.4688 73.4375 17.1875 73.4375C16.7731 73.4375 16.3757 73.6021 16.0826 73.8951C15.7896 74.1882 15.625 74.5856 15.625 75C15.625 75.6181 15.4417 76.2223 15.0983 76.7362C14.755 77.2501 14.2669 77.6506 13.6959 77.8871C13.1249 78.1236 12.4965 78.1855 11.8903 78.065C11.2842 77.9444 10.7273 77.6468 10.2903 77.2097C9.85325 76.7727 9.55562 76.2159 9.43505 75.6097C9.31447 75.0035 9.37635 74.3751 9.61288 73.8041C9.8494 73.2331 10.2499 72.745 10.7638 72.4017C11.2777 72.0583 11.8819 71.875 12.5 71.875H26.5625C28.6281 71.875 28.6313 68.75 26.5625 68.75Z" fill="black"/>
<path d="M32.8125 62.5H20.3125C18.2469 62.5 18.2438 65.625 20.3125 65.625H32.8125C34.8781 65.625 34.8813 62.5 32.8125 62.5Z" fill="black"/>
</g>
<defs>
<clipPath id="clip0">
<rect width="100" height="100" fill="white"/>
</clipPath>
</defs>
</svg>
