<svg width="100" height="100" viewBox="0 0 100 100" fill="none" xmlns="http://www.w3.org/2000/svg">
<g clip-path="url(#clip0)">
<path d="M25.9492 33.0969C25.9492 33.0969 20.2492 25.4178 20.4101 14.4646C20.4101 14.4646 23.6328 15.2316 26.4771 14.4646C32.0521 12.9613 37.5375 1.90097 47.2019 1.5789C56.8664 1.25683 58.7404 5.76679 58.7404 5.76679C58.7404 5.76679 62.2957 3.65332 67.6045 4.37089C75.5508 5.44472 82.5306 17.5506 75.4365 34.1809" fill="#565E75"/>
<path d="M66.6285 26.5091C63.1787 23.3265 59.3383 17.8209 57.7957 15.5214C57.4414 14.9935 56.6898 14.9443 56.2605 15.4132C48.4785 23.9128 38.398 26.7453 33.8873 27.6263C32.5131 27.8949 31.524 29.1003 31.524 30.5005V39.5994C31.524 49.8033 39.7959 58.0751 49.9998 58.0751C60.2037 58.0751 68.4756 49.8033 68.4756 39.5994V30.7791C68.4758 29.1619 67.8174 27.6056 66.6285 26.5091Z" fill="#FDD4BB"/>
<path d="M31.5242 39.5996V33.0746C30.703 32.623 29.7596 32.3654 28.7561 32.3654C25.5783 32.3654 23.0022 34.9416 23.0022 38.1193C23.0022 41.2971 25.5783 43.8732 28.7561 43.8732C29.8885 43.8732 30.9436 43.5447 31.8338 42.9799C31.6311 41.884 31.5242 40.7543 31.5242 39.5996Z" fill="#EBBAA1"/>
<path d="M68.4758 39.5996V33.0746C69.2971 32.623 70.2402 32.3654 71.2439 32.3654C74.4217 32.3654 76.9978 34.9416 76.9978 38.1193C76.9978 41.2971 74.4217 43.8732 71.2439 43.8732C70.1115 43.8732 69.0564 43.5447 68.1662 42.9799C68.3687 41.884 68.4758 40.7543 68.4758 39.5996Z" fill="#EBBAA1"/>
<path d="M50 54.5598C39.7961 54.5598 31.5242 46.2879 31.5242 36.084V39.5996C31.5242 49.8035 39.7961 58.0754 50 58.0754C60.2039 58.0754 68.4758 49.8035 68.4758 39.5996V36.084C68.4758 46.2877 60.2039 54.5598 50 54.5598Z" fill="#F7C4A8"/>
<path d="M28.7561 40.3576C26.1914 40.3576 24.0197 38.6795 23.2768 36.3615C23.099 36.9158 23.0022 37.506 23.0022 38.1193C23.0022 41.2971 25.5783 43.8732 28.7561 43.8732C29.8885 43.8732 30.9436 43.5449 31.8338 42.9799C31.6338 41.8984 31.528 40.7842 31.5252 39.6455C30.7035 40.0982 29.7606 40.3576 28.7561 40.3576Z" fill="#E8A990"/>
<path d="M71.2439 40.3576C70.2394 40.3576 69.2965 40.0982 68.4748 39.6455C68.4721 40.7842 68.3662 41.8984 68.1662 42.9799C69.0564 43.5447 70.1115 43.8732 71.2439 43.8732C74.4217 43.8732 76.9978 41.2971 76.9978 38.1193C76.9978 37.506 76.901 36.9158 76.7232 36.3615C75.9803 38.6795 73.8084 40.3576 71.2439 40.3576Z" fill="#E8A990"/>
<path d="M50 42.3955C46.7022 42.3955 44.0287 45.0689 44.0287 48.3668H55.9713C55.9713 45.0689 53.2979 42.3955 50 42.3955Z" fill="#F4594E"/>
<path d="M84.3455 71.6834C80.5205 64.4215 73.6859 59.2175 65.6682 57.4621L58.6533 55.9263C56.0717 57.2974 53.127 58.0754 50.0002 58.0754C46.8734 58.0754 43.9285 57.2974 41.3471 55.9263L34.3322 57.4621C26.3145 59.2173 19.4799 64.4215 15.6547 71.6834L1.5625 98.4375H15.9996L23.4447 84.8666V98.4375H76.5551V84.8666L84.0002 98.4375H98.4375L84.3455 71.6834Z" fill="#FDD4BB"/>
<path d="M3.41426 94.9219L1.5625 98.4375H15.9996L17.9283 94.9219H3.41426Z" fill="#F7C4A8"/>
<path d="M23.4447 94.9219H76.5551V98.4375H23.4447V94.9219Z" fill="#F7C4A8"/>
<path d="M82.0715 94.9219L84.0002 98.4375H98.4375L96.5857 94.9219H82.0715Z" fill="#F7C4A8"/>
<path d="M57.5072 79.5809C56.4063 76.0676 49.4217 75.4979 48.6328 81.2654C47.7354 87.8254 57.5072 92.5764 57.5072 92.5764C57.5072 92.5764 67.2791 87.8254 66.3816 81.2654C65.5926 75.4979 58.6082 76.0676 57.5072 79.5809Z" fill="#F4594E"/>
<path d="M66.1928 80.3684C64.7543 85.5368 57.5072 89.0608 57.5072 89.0608C57.5072 89.0608 50.26 85.5368 48.8215 80.3686C48.7418 80.6497 48.6764 80.9461 48.6326 81.2655C47.7352 87.8256 57.5072 92.5766 57.5072 92.5766C57.5072 92.5766 67.2791 87.8256 66.3817 81.2655C66.3379 80.9461 66.2725 80.6495 66.1928 80.3684Z" fill="#E84642"/>
<path d="M38.4533 37.9504C38.723 38.4293 39.2209 38.6984 39.7338 38.6984C39.9777 38.6984 40.2248 38.6375 40.4523 38.5094L44.2388 36.3781C44.7092 36.1135 44.9963 35.6119 44.9865 35.0725C44.9765 34.5328 44.6715 34.0422 44.1918 33.7947L40.4055 31.8412C39.6853 31.4693 38.8002 31.7522 38.4283 32.4725C38.0566 33.1928 38.3392 34.0781 39.0598 34.4498L40.4269 35.1553L39.0127 35.9514C38.306 36.349 38.0557 37.244 38.4533 37.9504Z" fill="black"/>
<path d="M55.7613 36.3782L59.5478 38.5094C59.7754 38.6375 60.0227 38.6985 60.2664 38.6985C60.7791 38.6985 61.2773 38.4291 61.5469 37.9504C61.9443 37.2442 61.6941 36.3491 60.9877 35.9516L59.5734 35.1555L60.9406 34.45C61.6611 34.0784 61.9437 33.1932 61.5721 32.4727C61.2004 31.7524 60.315 31.4698 59.5949 31.8414L55.8086 33.795C55.3289 34.0424 55.0238 34.533 55.0139 35.0727C55.0039 35.6119 55.291 36.1133 55.7613 36.3782Z" fill="black"/>
<path d="M42.5492 48.3639C42.5492 49.1744 43.2063 49.8316 44.017 49.8316H55.983C56.7937 49.8316 57.4508 49.1746 57.4508 48.3639C57.4508 44.2557 54.1084 40.9133 50 40.9133C45.8916 40.9133 42.5492 44.2557 42.5492 48.3639ZM50 43.8486C51.976 43.8486 53.66 45.1248 54.2705 46.8961H45.7295C46.34 45.1248 48.024 43.8486 50 43.8486Z" fill="black"/>
<path d="M36.3655 97.0646H24.8604V84.9349C24.8604 84.2648 24.4063 83.6796 23.7571 83.5132C23.1079 83.3464 22.4284 83.6413 22.1059 84.229L15.0641 97.0646H3.89946L16.8858 72.4099C20.5249 65.5009 26.987 60.5806 34.6151 58.9107L41.1381 57.4826C43.8102 58.8105 46.819 59.5589 49.9999 59.5589C53.1807 59.5589 56.1895 58.8105 58.8616 57.4826L65.3848 58.9107C73.0127 60.5806 79.4749 65.5009 83.1139 72.4099C83.3766 72.9089 83.8864 73.1939 84.4139 73.1939C84.6444 73.1939 84.8784 73.1394 85.0965 73.0245C85.8137 72.6468 86.0889 71.7591 85.7112 71.0419C81.6678 63.3654 74.4879 57.8986 66.0127 56.0431L62.3823 55.2482C65.6305 52.6757 68.0639 49.1169 69.2245 45.0281C69.8895 45.2259 70.5827 45.329 71.2856 45.329C75.2739 45.329 78.5184 42.0843 78.5184 38.0962C78.5184 36.5353 78.0198 35.0896 77.1756 33.9066C80.7987 24.9128 80.8155 16.1636 77.1942 9.78921C74.9663 5.86753 71.5551 3.33003 67.8354 2.8273C63.9268 2.29917 60.8709 3.17632 59.261 3.82495C58.843 3.33882 58.2444 2.77319 57.4069 2.23003C54.921 0.618117 51.4686 -0.127586 47.1477 0.0177263C43.5661 0.137062 40.2006 1.54878 36.5557 4.4605C35.9223 4.96636 35.819 5.88999 36.325 6.52339C36.8307 7.15679 37.7543 7.25991 38.3877 6.75405C41.5135 4.25698 44.3282 3.04878 47.2456 2.95151C55.3387 2.68316 57.2772 6.01382 57.4086 6.26128C57.5596 6.66401 57.8686 6.94937 58.2751 7.09507C58.6872 7.24273 59.1311 7.16616 59.5075 6.94253C59.5385 6.92378 62.6846 5.09331 67.4424 5.73667C70.2461 6.11558 72.8704 8.12124 74.6418 11.2394C76.1133 13.8296 78.9395 20.848 74.8444 31.8039C73.7928 31.2068 72.5788 30.8638 71.2854 30.8638C70.8465 30.8638 70.4092 30.9054 69.9795 30.9843V30.7421C69.9795 28.6996 69.1327 26.747 67.6565 25.3849C67.6565 25.3849 67.6565 25.3847 67.6563 25.3847C64.3038 22.2919 60.5067 16.838 59.0299 14.6369C58.6098 14.0109 57.9381 13.6193 57.187 13.5626C56.4301 13.5062 55.7036 13.7945 55.1905 14.355C47.5772 22.6701 37.5377 25.3685 33.5747 26.1427C31.5151 26.5451 30.0204 28.3619 30.0204 30.463V30.9843C29.5907 30.9054 29.1536 30.8638 28.7145 30.8638C27.9245 30.8638 27.1645 30.9929 26.4524 31.2281C25.1301 29.0683 22.1596 23.4476 21.8438 16.1132C23.1735 16.249 25.0415 16.2908 26.8131 15.8128C29.3819 15.1203 31.7918 12.8218 34.1225 10.599C34.7092 10.0396 34.7311 9.1105 34.1717 8.52398C33.6122 7.93745 32.6831 7.91538 32.0967 8.47495C30.0319 10.4443 27.8965 12.4806 26.0489 12.9789C23.6079 13.6371 20.7184 12.9744 20.6918 12.9681C20.2594 12.8654 19.8022 12.9642 19.4508 13.2376C19.0995 13.5111 18.8911 13.9292 18.8846 14.3744C18.7542 23.2601 22.2612 30.0279 23.9042 32.7015C22.419 34.0271 21.4817 35.954 21.4817 38.0966C21.4817 42.0849 24.7264 45.3294 28.7145 45.3294C29.4174 45.3294 30.1106 45.2261 30.7756 45.0283C31.9362 49.1171 34.3694 52.6759 37.6178 55.2484L33.9874 56.0433C25.5122 57.8988 18.3323 63.3658 14.2889 71.0421L0.168991 97.8482C-0.0706571 98.3031 -0.0548368 98.8503 0.210984 99.2906C0.476609 99.7308 0.953171 99.9999 1.46743 99.9999H15.9331C16.469 99.9999 16.9622 99.7079 17.2198 99.2382L21.9249 90.6618V98.5324C21.9249 99.3429 22.5819 100 23.3926 100H36.3655C37.1762 100 37.8333 99.3429 37.8333 98.5324C37.8331 97.7216 37.176 97.0646 36.3655 97.0646ZM71.2852 33.799C73.6547 33.799 75.5827 35.7267 75.5827 38.0964C75.5827 40.4662 73.6547 42.3939 71.2852 42.3939C70.7807 42.3939 70.2844 42.3052 69.8165 42.1347C69.9237 41.2978 69.9794 40.4451 69.9794 39.5794V34.0025C70.3999 33.8687 70.8411 33.799 71.2852 33.799ZM28.7145 42.3937C26.345 42.3937 24.417 40.466 24.417 38.0962C24.417 35.7267 26.345 33.7988 28.7145 33.7988C29.1588 33.7988 29.6 33.8685 30.0204 34.0023V39.5792C30.0204 40.4449 30.0758 41.2976 30.1831 42.1345C29.7151 42.305 29.2188 42.3937 28.7145 42.3937ZM32.9557 39.5792V30.4628C32.9557 29.7626 33.4526 29.1574 34.1374 29.0236C38.3139 28.2076 48.7915 25.3931 56.9385 16.7849C58.6643 19.3222 62.3278 24.4626 65.6659 27.5421C66.5417 28.3501 67.0442 29.5166 67.0442 30.7419V39.5794C67.0442 48.9777 59.3981 56.6236 50.0001 56.6236C40.602 56.6236 32.9557 48.9775 32.9557 39.5792Z" fill="black"/>
<path d="M99.8309 97.8482L88.4445 76.2311C88.067 75.5139 87.1791 75.2383 86.4619 75.6164C85.7447 75.9941 85.4695 76.8818 85.8473 77.599L96.1002 97.0645H84.9357L77.8939 84.2289C77.5719 83.6414 76.8928 83.3471 76.2428 83.5131C75.5936 83.6795 75.1395 84.2646 75.1395 84.9348V97.0645H42.2365C41.4258 97.0645 40.7687 97.7217 40.7687 98.5322C40.7687 99.3428 41.4258 100 42.2365 100H76.6072C77.418 100 78.075 99.3428 78.075 98.5322V90.6617L82.7801 99.2381C83.0377 99.7078 83.5309 99.9998 84.0668 99.9998H98.5324C99.0467 99.9998 99.5233 99.7307 99.7891 99.2904C100.055 98.8504 100.071 98.3033 99.8309 97.8482Z" fill="black"/>
<path d="M52.766 75.5385C50.4061 75.737 47.698 77.3092 47.1758 81.1278C46.1443 88.6676 56.4412 93.7664 56.8801 93.9799C57.0826 94.0784 57.3022 94.1276 57.5219 94.1276C57.7414 94.1276 57.9611 94.0784 58.1637 93.9799C58.6025 93.7666 68.8994 88.6678 67.868 81.1278C67.3457 77.3094 64.6377 75.737 62.2777 75.5385C60.4469 75.3832 58.7154 75.976 57.5221 77.0526C56.3285 75.976 54.5969 75.3842 52.766 75.5385ZM56.1211 80.0776C56.3129 80.6897 56.8803 81.1065 57.5217 81.1065C58.1633 81.1065 58.7305 80.6899 58.9223 80.0776C59.2434 79.053 60.61 78.343 62.0315 78.4635C62.7945 78.5276 64.6076 78.9543 64.9594 81.5256C65.5277 85.6803 60.2793 89.4889 57.5279 91.0022C56.6961 90.5385 55.1703 89.6157 53.6965 88.3461C51.8414 86.7483 49.7088 84.2678 50.084 81.5256C50.4357 78.9545 52.2488 78.5278 53.0119 78.4635C53.117 78.4545 53.2215 78.4502 53.3258 78.4502C54.6303 78.4504 55.8238 79.1288 56.1211 80.0776Z" fill="black"/>
<path d="M72.0723 78.8922C72.309 79.0344 72.5695 79.1022 72.827 79.102C73.3252 79.102 73.8109 78.8483 74.0863 78.3901L76.3939 74.55C76.6662 74.0967 76.6736 73.5317 76.4133 73.0713C76.1529 72.611 75.6648 72.3262 75.1359 72.3262H73.7209L74.9096 70.3422C75.3262 69.6469 75.1004 68.7455 74.4049 68.3289C73.71 67.9123 72.8082 68.1381 72.3916 68.8336L69.8717 73.0397C69.6 73.493 69.593 74.0576 69.8537 74.5174C70.1145 74.9774 70.6022 75.2616 71.1307 75.2616H72.5416L71.5701 76.8778C71.1525 77.5729 71.3775 78.4746 72.0723 78.8922Z" fill="black"/>
<path d="M41.708 79.102C42.2062 79.102 42.692 78.8483 42.9674 78.3901L45.275 74.55C45.5473 74.0967 45.5547 73.5317 45.2943 73.0713C45.034 72.611 44.5459 72.3262 44.017 72.3262H42.6019L43.7906 70.3422C44.2072 69.6469 43.9814 68.7455 43.2859 68.3289C42.591 67.9123 41.6892 68.1381 41.2726 68.8336L38.7527 73.0397C38.481 73.493 38.474 74.0576 38.7348 74.5174C38.9955 74.9774 39.4832 75.2616 40.0117 75.2616H41.4226L40.4512 76.8778C40.0336 77.5725 40.2586 78.4743 40.9531 78.8918C41.19 79.0344 41.4506 79.1022 41.708 79.102Z" fill="black"/>
<path d="M58.7762 61.6301C58.081 61.2135 57.1795 61.4393 56.7629 62.1348L54.243 66.3408C53.9713 66.7941 53.9643 67.3588 54.225 67.8186C54.4857 68.2785 54.9734 68.5627 55.5019 68.5627H56.9129L55.9414 70.1789C55.5238 70.8736 55.7488 71.7754 56.4435 72.193C56.6803 72.3352 56.9408 72.4029 57.1982 72.4027C57.6965 72.4027 58.1822 72.149 58.4576 71.6908L60.7652 67.8508C61.0375 67.3975 61.0449 66.8324 60.7846 66.3721C60.5242 65.9117 60.0361 65.627 59.5072 65.627H58.0922L59.2809 63.643C59.6976 62.9481 59.4717 62.0467 58.7762 61.6301Z" fill="black"/>
</g>
<defs>
<clipPath id="clip0">
<rect width="100" height="100" fill="white"/>
</clipPath>
</defs>
</svg>
