<svg width="100" height="100" viewBox="0 0 100 100" fill="none" xmlns="http://www.w3.org/2000/svg">
<path d="M56.5819 1.59124C43.5641 1.10999 41.5998 6.82191 35.2977 8.42503C32.3875 9.16527 29.537 8.54163 27.0774 7.43695C24.443 6.25374 21.8539 9.14886 23.351 11.6184C25.093 14.492 27.5717 17.4539 31.0569 19.6442C34.7959 21.9942 39.6934 23.4559 46.0823 22.9678L50.4594 30.1319C51.6633 28.2268 53.8577 27.0098 56.3202 27.2088C59.3557 27.4543 61.8166 29.8987 62.0801 32.9326C62.3881 36.4795 59.759 39.4809 56.3543 39.7801L63.877 52.0924C63.877 52.0924 78.5124 42.6239 79.9291 29.4373C81.4041 15.7063 72.4094 2.1764 56.5819 1.59124Z" fill="#565E75"/>
<path d="M75.5526 98.4375C75.5526 98.4375 75.1254 62.6674 61.8852 58.3963C48.645 54.1252 31.0569 73.3451 31.0569 98.4375H75.5526Z" fill="#FFA6D5"/>
<path d="M31.1727 94.9219C31.0965 96.0795 31.0569 97.2518 31.0569 98.4375H75.5526C75.5526 98.4375 75.5366 97.1037 75.4157 94.9219H31.1727Z" fill="#FF90D1"/>
<path d="M45.2281 89.3539H63.4526V98.4375H45.2281V89.3539Z" fill="#FDD4BB"/>
<path d="M45.2281 94.9219H63.4526V98.4375H45.2281V94.9219Z" fill="#F7C4A8"/>
<path d="M56.3543 39.7799C59.5768 39.4969 62.1047 36.7928 62.1047 33.4967C62.1047 30.0121 59.2799 27.1873 55.7955 27.1873C53.5485 27.1873 51.5774 28.3629 50.4596 30.1317L46.0825 22.9676C39.6936 23.4557 34.7961 21.994 31.0571 19.644V42.1504C31.0571 42.1504 37.3375 42.1504 39.4977 46.0237L32.8682 49.2198C35.1383 53.3502 39.3336 56.2733 44.2473 56.775V64.4131C49.7803 59.0371 56.2291 56.5719 61.8854 58.3965C62.5846 58.6221 63.2475 58.9364 63.877 59.3276V52.0924L56.3543 39.7799Z" fill="#FDD4BB"/>
<path d="M44.2471 60.8973V64.4129C49.7801 59.037 56.229 56.5717 61.8852 58.3963C62.5844 58.6219 63.2473 58.9362 63.8768 59.3274V55.8118C63.2473 55.4206 62.5842 55.1063 61.8852 54.8807C56.229 53.0561 49.7801 55.5213 44.2471 60.8973Z" fill="#F7C4A8"/>
<path d="M76.7106 10.6322C76.2444 9.96955 75.3287 9.80998 74.6657 10.2766C74.0028 10.7432 73.8434 11.6586 74.3098 12.3215C77.6862 17.1197 79.1836 23.1283 78.527 29.2405C77.4356 39.3987 67.7981 47.4158 64.3362 49.9907L58.6696 40.7162C61.5873 39.5793 63.5949 36.7627 63.5949 33.4649C63.5949 29.1697 60.1008 25.6756 55.8057 25.6756C53.8774 25.6756 52.0645 26.3754 50.6629 27.6117L47.326 22.1502C47.0385 21.6797 46.5112 21.4094 45.9617 21.452C40.51 21.8682 35.7455 20.8223 31.7998 18.3426C31.7996 18.3424 31.7992 18.3422 31.799 18.3422C28.9436 16.5475 26.5057 14.0041 24.5531 10.7832C24.0344 9.92736 24.5365 9.24767 24.7028 9.05959C24.8723 8.86799 25.4983 8.27482 26.4305 8.69338C29.6504 10.1393 32.7453 10.5006 35.6301 9.76701C38.0135 9.16056 39.8477 8.01467 41.6215 6.90627C44.9596 4.82053 48.4119 2.66271 56.5395 2.96428C61.9348 3.16369 66.8018 4.99201 70.6141 8.25158C71.2303 8.77853 72.1569 8.70568 72.6834 8.08986C73.2104 7.47365 73.1379 6.54728 72.5217 6.02053C68.2008 2.32599 62.7117 0.2549 56.6481 0.0308763C47.619 -0.304085 43.6069 2.2047 40.066 4.41681C38.3383 5.49631 36.8461 6.42873 34.9065 6.92209C32.6803 7.4883 30.2332 7.18342 27.633 6.01564C25.8254 5.20392 23.8119 5.63537 22.5035 7.11545C21.2037 8.58556 21.0229 10.6225 22.0428 12.3051C24.0781 15.6627 26.6018 18.374 29.551 20.378V42.136C29.551 42.9444 30.2074 43.6004 31.0158 43.6037C31.0617 43.6039 34.9252 43.644 37.1584 45.5045L32.1959 47.8969C31.4518 48.2365 31.1381 49.2176 31.5471 49.9258C33.899 54.2053 38.0293 57.1754 42.7668 58.059V63.8268C38.7715 67.85 35.3955 73.2026 33.0717 79.2715C32.7819 80.0285 33.1604 80.8772 33.9176 81.167C34.0903 81.233 34.2676 81.2645 34.442 81.2645C35.0324 81.2645 35.5893 80.9055 35.8131 80.3211C41.3135 65.9557 52.577 56.9463 61.4565 59.8104C64.1846 60.6905 66.5659 63.3039 68.5348 67.5785C68.8741 68.3147 69.7452 68.6369 70.4821 68.2975C71.2182 67.9584 71.5403 67.0865 71.2012 66.3504C69.5678 62.8045 67.6145 60.2016 65.3703 58.5692V52.8715C66.6309 51.9834 69.4881 49.8407 72.4735 46.7156C77.7278 41.2155 80.8301 35.2811 81.4453 29.5545C82.1786 22.7332 80.4971 16.0135 76.7106 10.6322ZM62.4354 57.0424C62.4096 57.0338 62.3842 57.0244 62.3584 57.016C57.2043 55.3531 51.3272 56.81 45.8082 61.1168C45.7729 61.1444 45.7381 61.1731 45.703 61.2008V56.7881C45.703 56.0352 45.1334 55.4045 44.3844 55.3279C40.5778 54.9393 37.1487 52.918 34.9475 49.8285L40.1137 47.3379C40.4781 47.1623 40.7537 46.8442 40.8758 46.4586C40.9977 46.0731 40.9553 45.6541 40.7582 45.301C38.894 41.9586 34.7205 41.0268 32.4869 40.7674V22.0699C36.2473 23.8787 40.5364 24.6733 45.283 24.4356L49.2071 30.858C49.7285 31.7752 51.167 31.7824 51.7002 30.8768C52.5971 29.4576 54.1319 28.6104 55.8059 28.6104C58.4823 28.6104 60.6598 30.7879 60.6598 33.4643C60.6598 35.9569 58.7172 38.0799 56.2373 38.2977C55.1828 38.3584 54.5362 39.6408 55.1133 40.525L62.4354 52.509V57.0424Z" fill="black"/>
<path d="M71.4971 71.0774C70.7209 71.3114 70.2817 72.1301 70.5157 72.9063C73.2752 82.0584 73.9374 93.1192 74.0901 97.0643H64.9457V78.1737C64.9457 77.3631 64.2887 76.7059 63.478 76.7059C62.6672 76.7059 62.0102 77.3631 62.0102 78.1737V87.9631H46.6856V78.1737C46.6856 77.3631 46.0286 76.7059 45.2178 76.7059C44.4073 76.7059 43.75 77.3631 43.75 78.1737V97.0643H32.5073C32.6149 93.2362 33.1434 89.4432 34.0827 85.769C34.2832 84.9836 33.8094 84.1842 33.0241 83.9834C32.2391 83.7832 31.4395 84.2569 31.2385 85.042C30.119 89.4227 29.5512 93.9613 29.5512 98.5319C29.5512 99.3424 30.2082 99.9996 31.019 99.9996H75.6016C76.3965 100.015 77.0948 99.3092 77.0692 98.5145C77.0622 97.9174 76.8541 83.76 73.326 72.0588C73.0918 71.2826 72.2729 70.843 71.4971 71.0774ZM62.0104 97.0643H46.6856V90.8985H62.0102V97.0643H62.0104Z" fill="black"/>
<path d="M42.9074 35.8731L41.4943 35.0778L42.8605 34.3729C43.5809 34.0012 43.8635 33.116 43.4918 32.3955C43.1203 31.6752 42.2348 31.3926 41.5144 31.7643L37.7291 33.7172C37.2496 33.9647 36.9443 34.4553 36.9348 34.995C36.925 35.5346 37.2119 36.036 37.6822 36.3006L41.4676 38.4311C41.6951 38.5592 41.9422 38.6201 42.1861 38.6201C42.699 38.6201 43.1971 38.3508 43.4664 37.8721C43.8641 37.1657 43.6137 36.2707 42.9074 35.8731Z" fill="black"/>
<path d="M27.0942 47.6971C26.7832 46.9485 25.9246 46.5936 25.1758 46.9045L20.953 48.6582C20.2043 48.969 19.8494 49.828 20.1604 50.5766C20.3949 51.1412 20.941 51.4817 21.5164 51.4817C21.7039 51.4817 21.8947 51.4455 22.0787 51.369L26.3016 49.6153C27.0502 49.3045 27.4051 48.4457 27.0942 47.6971Z" fill="black"/>
<path d="M24.8291 44.0377C25.4879 44.0377 26.0869 43.5908 26.2525 42.9227C26.4475 42.136 25.9678 41.3401 25.1811 41.1449L20.2076 39.9121C19.4209 39.717 18.625 40.1969 18.4299 40.9836C18.2348 41.7703 18.7147 42.5662 19.5014 42.7614L24.4748 43.9942C24.5934 44.0237 24.7121 44.0377 24.8291 44.0377Z" fill="black"/>
<path d="M29.5631 52.0182C28.9076 51.5406 27.9899 51.6848 27.5127 52.34L24.4953 56.4813C24.018 57.1363 24.1621 58.0545 24.8172 58.5316C25.4656 59.0059 26.3877 58.8691 26.8676 58.2098L29.885 54.0686C30.3625 53.4135 30.2182 52.4955 29.5631 52.0182Z" fill="black"/>
</svg>
